<svg xmlns="http://www.w3.org/2000/svg" width="195" height="21" viewBox="0 0 195 21"><g><g opacity=".35"><path fill="#fff" d="M178.748 9.699l-11.387 11.293-.219-.217-.218.217-11.388-11.293-11.388 11.293-.218-.217-.218.217-11.388-11.293-11.388 11.293-.218-.217-.219.217-11.387-11.293-11.388 11.293-.219-.217-.218.217L85.899 9.699 74.511 20.992l-.218-.217-.218.217L62.687 9.699 51.299 20.992l-.218-.217-.219.217L39.475 9.699 28.087 20.992l-.219-.217-.218.217L16.262 9.699 4.875 20.992l-4.881-4.84L16.262.019l11.606 11.51L39.475.018l11.606 11.51L62.687.018l11.606 11.51L85.899.018l11.606 11.51L109.112.018l11.606 11.51L132.324.018l11.606 11.51L155.536.018l11.606 11.51L178.748.018l16.269 16.133-4.88 4.84z"/></g></g></svg>