<?xml version="1.0" encoding="UTF-8"?>
<!DOCTYPE svg PUBLIC "-//W3C//DTD SVG 1.1//EN" "http://www.w3.org/Graphics/SVG/1.1/DTD/svg11.dtd">
<!-- Creator: CorelDRAW 2018 (64-Bit) -->
<svg xmlns="http://www.w3.org/2000/svg" xml:space="preserve" width="210mm" height="210mm" version="1.1" style="shape-rendering:geometricPrecision; text-rendering:geometricPrecision; image-rendering:optimizeQuality; fill-rule:evenodd; clip-rule:evenodd"
viewBox="0 0 21000 21000"
 xmlns:xlink="http://www.w3.org/1999/xlink">
 <defs>
  <style type="text/css">
   <![CDATA[
    .fil3 {fill:black}
    .fil0 {fill:#5F94FF}
    .fil2 {fill:#FE4B64}
    .fil1 {fill:#FEFEFE}
   ]]>
  </style>
 </defs>
 <g id="Слой_x0020_1">
  <metadata id="CorelCorpID_0Corel-Layer"/>
  <path class="fil0" d="M6677.3 527.4c5168.2,0 3131.09,3004.08 6755.28,6273.93 3624.18,3269.84 7567.42,55.26 7567.42,6675.17 0,8286.81 -14940.9,8661.59 -19063.9,2224 -4404.19,-6876.65 -426.98,-15173.1 4741.2,-15173.1z"/>
  <path class="fil0" d="M17831.11 1580.93c1927.85,1342.98 2779.72,3452.26 1902.71,4711.21 -877.01,1258.95 -3150.8,1190.85 -5078.65,-152.13 -1927.85,-1342.98 -2779.72,-3452.26 -1902.71,-4711.21 877.01,-1258.95 3150.8,-1190.85 5078.65,152.13z"/>
  <polygon class="fil1" points="2358.63,20784.14 2861.34,19223.1 2993.63,17926.64 1670.71,17900.18 876.96,17582.68 321.34,16550.81 241.96,12396.85 771.13,11179.77 1961.76,10094.97 4395.92,9830.39 5083.84,9433.52 5057.38,8507.47 4157.8,7740.18 3469.88,8507.47 2279.26,8851.43 1088.63,8401.64 278.03,7058.52 755.86,5432.45 2332.17,4671.01 2504.15,3255.48 3655.09,1681.21 3893.22,662.56 4726.66,278.92 9065.83,252.46 10269.68,1112.36 10500,2117.77 9886.04,3453.92 10613.64,6404.03 9859.58,6734.76 9674.37,7475.59 8907.08,8322.26 7848.74,8467.78 7914.89,9459.97 8430.83,9856.84 13828.33,10081.74 13881.25,6496.63 13246.25,5742.57 13272.71,4962.05 13801.87,4684.24 14119.37,3996.32 15151.25,3718.5 15296.83,371.48 20601.73,397.94 20588.5,8441.29 15918.6,8547.12 15931.81,11113.61 14794.1,12476.24 10110.98,12608.53 10500,13938.07 10500,14976.56 9793.51,16974.18 9846.45,18310.32 10441.76,20379.8 10500,20641.97 "/>
  <polygon class="fil1" points="13854.95,20721.34 13868.17,16818.73 14265.05,16554.15 16606.61,16527.69 16619.84,14014.14 17016.72,13815.7 20707.65,14014.14 20654.74,20681.65 "/>
  <path class="fil2" d="M16593.37 1724.23l2740.17 0 0 1333.56 -2740.17 0 0 -1333.56zm26.46 2711.98l2672.29 0 0 2685.52 -2672.29 0 0 -2685.52z"/>
  <path class="fil3" d="M16258.05 10838.72l0 -2032.26 4064.51 0c373.6,0 677.42,-303.83 677.42,-677.41l0 -7451.61c0,-373.6 -303.83,-677.41 -677.42,-677.41l-4741.92 -0.02c-373.6,0 -677.41,303.83 -677.41,677.42l0 2709.66c-647.29,0 -1189.9,455.9 -1323.34,1063.55 -410.51,130.4 -708.92,515.52 -708.92,968.71 0,308.9 120.24,599.52 338.72,817.64l338.71 338.71 0 3227.56 -5099.27 -283.15c-179.51,-10.16 -320.08,-158.86 -320.08,-338.38l0 -375.3c1047.97,0 1913.37,-797.31 2021.08,-1817.17l688.6 -344.48 0 -209.32c0,-1204.12 -336.68,-2145.05 -697.06,-2874.97 426.1,-372.57 697.06,-918.91 697.06,-1528.25 0,-1120.8 -911.47,-2032.26 -2032.26,-2032.26l-4064.52 0.03c-747.2,0 -1354.85,607.65 -1354.85,1354.84 0,60.97 4.07,120.58 11.86,179.52 -852.54,713.65 -1356.87,1778.89 -1365.34,2895.62 -1147.55,164.62 -2033.61,1151.62 -2033.61,2344.22 0,1307.41 1063.54,2370.97 2370.97,2370.97 756.33,0 1446.29,-355.65 1889.32,-945l481.65 421.35 0 570.39c0,176.81 -138.2,325.16 -314.67,338.03l-1595.99 113.8c-1587.53,113.47 -2831.27,1449 -2831.27,3040.6l0 3573.73c0,1120.79 911.48,2032.25 2032.26,2032.25l618.81 -0.02c-30.48,200.19 -68.76,398.66 -124.3,592.75l-604.94 2116.94 19078.14 0 0 -6774.18c0,-373.6 -303.83,-677.41 -677.41,-677.41l-3387.1 -0.02c-373.6,0 -677.41,303.83 -677.41,677.41l0 2032.26 -2032.27 0c-373.6,0 -677.42,303.83 -677.42,677.41l0 3387.1 -2792.99 0 -411.54 -1439.51c-120.92,-425.08 -182.56,-864.38 -182.56,-1305.73 0,-607.31 114.47,-1201.4 340.05,-1765.02l87.06 -218.13c165.97,-415.25 250.3,-852.54 250.3,-1299.63 0,-489.44 -109.74,-976.85 -308.9,-1423.61l3696 0.04c1120.79,0 2032.25,-911.48 2032.25,-2032.26zm0 -3387.1l3387.1 0 0 -3387.1 -3387.1 0 0 3387.1zm677.43 -1354.84l677.42 0 0 677.41 -677.42 0.02 0 -677.43zm1354.83 677.43l0 -677.41 677.43 -0.02 0 677.41 -677.43 0.02zm677.43 -1354.84l-677.43 0 0 -677.42 677.43 0 0 677.42zm-1354.84 -677.42l0 677.42 -677.42 0 0 -677.42 677.42 0zm-1354.85 -1354.84l3387.1 0 0 -2032.26 -3387.1 0 0 2032.26zm677.43 -1354.84l2032.26 0 0 677.41 -2032.26 0.02 0 -677.43zm-8467.74 3725.81c560.23,0 1016.13,-455.9 1016.13,-1016.13l-677.41 0c0,186.63 -152.08,338.72 -338.72,338.72 -186.63,0 -338.71,-152.09 -338.71,-338.72l-677.41 0c0,560.23 455.89,1016.13 1016.12,1016.13zm7112.9 -5080.64l4741.92 0 0.34 7451.61 -4742.26 -0.01 0 -7451.6zm-1693.54 4403.21l338.7 0 0 -338.71c0,-373.6 303.83,-677.42 677.41,-677.42l0 2032.26 -875.89 0 -338.71 -338.72c-89.08,-89.08 -140.23,-212.71 -140.23,-338.71 0,-186.63 152.09,-338.71 338.72,-338.71l0 0.01zm-10209.05 -2887.5c248.61,314.33 633.06,516.53 1063.9,516.53 747.2,0 1354.84,-607.64 1354.84,-1354.84l-677.43 0.01c0,373.6 -303.83,677.42 -677.41,677.42 -373.59,0 -677.42,-303.83 -677.42,-677.42 0,-373.58 303.83,-677.41 677.42,-677.41l4064.51 0c747.2,0 1354.84,607.65 1354.84,1354.84 0,747.2 -607.64,1354.85 -1354.84,1354.85l-1916.42 -0.02c-622.89,0 -1163.47,422.04 -1314.2,1026.29l-91.45 366.14c-427.8,119.57 -742.44,513.15 -742.44,978.54 0,308.9 120.24,599.52 338.71,817.64l337.02 337.35c-15.59,391.22 -144.63,762.1 -371.23,1074.73l-1218.68 -1066.6c-710.62,-621.53 -1118.08,-1519.45 -1118.08,-2463.43 0,-856.6 356.32,-1677.97 968.38,-2264.6l-0.02 -0.02zm-1307.07 6274.6c-933.83,0 -1693.54,-759.73 -1693.54,-1693.54 0,-835.59 609.67,-1527.25 1414.78,-1664.42 149.72,893.19 598.16,1716.25 1289.48,2321.17l369.87 323.47c-315,445.06 -823.4,713.32 -1380.58,713.32l-0.01 0zm3048.38 724.16l0 -594.1c436.26,-486.73 677.41,-1106.9 677.41,-1765.69l0 -198.15 -537.18 -537.19c-89.09,-89.08 -140.23,-212.72 -140.23,-338.72 0,-186.63 152.08,-338.71 338.71,-338.71l264.53 0.02 210.69 -841.69c75.19,-302.14 345.48,-513.16 656.75,-513.16l1916.42 0c268.26,0 523.65,-53.51 758.03,-148.01 254.03,523.98 555.14,1314.53 592.75,2311.69l-673.35 336.69 0 209.32c0,117.53 -19.65,229.64 -48.1,338.71l-549.4 -0.01c-338.03,0 -641.86,-187.99 -792.92,-490.11l-605.95 303.14c266.9,533.48 802.75,864.73 1398.87,864.73l129.39 0c-238.11,208.32 -546,338.72 -886.73,338.72l-1354.85 -0.02 0 677.41 677.42 0.02 0 375.3c0,439.3 282.14,812.56 677.41,953.46l0 1380.57 -3387.08 0 0 -1371.1c394.59,-141.58 677.41,-516.53 677.41,-953.12zm2675.46 3001.64c-157.51,771.92 -841.36,1354.84 -1659.35,1354.84 -817.99,0 -1501.83,-582.92 -1659.34,-1354.84l3318.69 0zm-4916.7 6875.47c72.82,-254.37 119.9,-515.52 154.79,-778.69l3441.29 -0.02 0 742.45 515.86 1289.81 -4469.96 0 358.02 -1253.55zm2918.65 -3009.43l338.72 -338.72c89.08,-89.08 212.71,-140.22 338.71,-140.22 186.63,0 338.72,152.08 338.72,338.71l0 338.72 338.7 -0.02c373.6,0 677.41,303.83 677.41,677.41 0,373.59 -303.83,677.42 -677.41,677.42l-1354.85 0.01 0 -1553.31zm2032.26 2042.41l0 527.03 -677.41 0 0 -338.72c247.93,0 477.24,-71.8 677.41,-188.32l0 0.01zm-161.56 1204.44l-177.14 442.7 -177.14 -442.7 354.28 0zm161.56 -3540.86c-118.9,-69.1 -247.94,-122.96 -386.13,-153.44 -53.51,-168.68 -151.75,-316.36 -278.42,-434.23 31.16,-155.13 161.91,-274.69 325.83,-274.69 186.64,0 338.72,152.08 338.72,338.71l0 523.65zm10161.28 4556.99l0 -677.41 2032.25 0 0 677.41 -2032.25 0zm0 -2032.26l2032.25 0 0 677.42 -2032.25 0.01 0 -677.43zm-677.41 677.43l-3387.1 0 0 -677.41 3387.1 -0.02 0 677.43zm2709.66 -2032.25l0 677.41 -2032.25 0 0 -677.41 2032.25 0zm0 -2709.69l0 677.42 -3387.08 0.01 0 -677.41 3387.08 -0.02zm-3387.08 1354.85l3387.08 0 0 677.41 -3387.08 0 0 -677.41zm677.42 1354.84l0 677.41 -3387.1 0 0 -677.41 3387.1 0zm-3387.1 2709.67l3387.1 0 0 677.41 -3387.1 0 0 -677.41zm-4266.38 -4302.62l-87.05 218.12c-257.76,644.22 -388.5,1322.66 -388.5,2016.67 0,504 70.46,1005.97 208.99,1491.67l358.01 1253.57 -1760.27 0 515.86 -1289.81 0 -3790.83c0,-560.23 -455.9,-1016.13 -1016.13,-1016.13 -442.69,0 -816.29,286.55 -955.16,682.51 -20.66,-1.37 -40.31,-5.09 -60.97,-5.09 -308.9,0 -599.51,120.24 -817.64,338.71l-338.71 338.72 -2611.8 0c-2.71,-6.44 -4.74,-13.22 -7.46,-19.99l-87.39 -218.48c-133.45,-334.31 -201.52,-686.9 -201.52,-1047.63 0,-435.93 102.97,-872.18 298.06,-1262.03l164.95 -329.9c140.23,-280.79 214.41,-594.78 214.41,-908.76l0 -277.74 -677.41 0.01 0 277.75c0,209.32 -49.45,418.65 -142.93,605.95l-164.95 329.9c-241.84,483 -369.53,1024.25 -369.53,1564.83 0,442.36 82.98,874.9 245.56,1286.09l-922.99 0 0 677.41 4064.51 0 0 1354.84 -3387.1 0c-747.2,0 -1354.84,-607.64 -1354.84,-1354.84l0 -3573.73c0,-1237.64 967.35,-2276.46 2201.96,-2364.87l1185.14 -84.69 0 1620.05c0,1307.41 1063.54,2370.97 2370.97,2370.97 1307.43,0 2370.97,-1063.54 2370.97,-2370.97l0 -1636.64 4991.89 277.41 614.77 307.54 303.14 -605.95 -490.45 -245.23 0 -3177.77 677.42 0.03 0 1354.84c0,373.6 303.83,677.41 677.41,677.41l0 2032.26c0,747.2 -607.64,1354.84 -1354.84,1354.84l-3996.09 -0.01c-40.31,-130.07 -68.42,-263.86 -68.42,-399.69l0 -277.74 -677.42 0.01 0 277.75c0,313.99 74.19,627.97 214.41,908.76l164.95 329.89c195.1,389.86 298.07,826.12 298.07,1262.03 0,360.74 -68.09,713.33 -201.86,1047.98l-0.02 0z"/>
 </g>
</svg>
