<?xml version="1.0" encoding="UTF-8"?>
<!DOCTYPE svg PUBLIC "-//W3C//DTD SVG 1.1//EN" "http://www.w3.org/Graphics/SVG/1.1/DTD/svg11.dtd">
<!-- Creator: CorelDRAW 2018 (64-Bit) -->
<svg xmlns="http://www.w3.org/2000/svg" xml:space="preserve" width="210mm" height="210mm" version="1.1" style="shape-rendering:geometricPrecision; text-rendering:geometricPrecision; image-rendering:optimizeQuality; fill-rule:evenodd; clip-rule:evenodd"
viewBox="0 0 21000 21000"
 xmlns:xlink="http://www.w3.org/1999/xlink">
 <defs>
  <style type="text/css">
   <![CDATA[
    .fil4 {fill:black}
    .fil3 {fill:black}
    .fil0 {fill:#5F94FF}
    .fil2 {fill:#FE4B64}
    .fil1 {fill:#FEFEFE}
   ]]>
  </style>
 </defs>
 <g id="Слой_x0020_1">
  <metadata id="CorelCorpID_0Corel-Layer"/>
  <path class="fil0" d="M6677.3 527.4c5168.2,0 3131.09,3004.08 6755.28,6273.93 3624.18,3269.84 7567.42,55.26 7567.42,6675.17 0,8286.81 -14940.9,8661.59 -19063.9,2224 -4404.19,-6876.65 -426.98,-15173.1 4741.2,-15173.1z"/>
  <path class="fil0" d="M17831.11 1580.93c1927.85,1342.98 2779.72,3452.26 1902.71,4711.21 -877.01,1258.95 -3150.8,1190.85 -5078.65,-152.13 -1927.85,-1342.98 -2779.72,-3452.26 -1902.71,-4711.21 877.01,-1258.95 3150.8,-1190.85 5078.65,152.13z"/>
  <polygon class="fil1" points="5112.67,5124.61 15510.8,5177.53 15431.42,8749.4 17223.56,7164.54 18288.92,6791.49 19506.01,6950.24 20379.13,7770.44 20643.72,9305.03 19955.8,10500 16013.51,13511.9 15563.72,13511.9 15510.8,18221.49 17071.84,18353.78 17944.97,18962.32 18024.34,19782.53 17574.55,20534.31 16383.92,20761.49 7520.38,20735.03 6223.92,20364.61 5244.96,19279.82 5086.21,17798.16 "/>
  <polygon class="fil2" points="7786.93,0 -0,0 -0,7804.07 7786.93,7804.07 "/>
  <path class="fil3" d="M7093.35 693.58l-6399.77 0 0 6416.91 6399.77 0 0 -6416.91zm693.58 -693.58l-7786.93 0 0 7804.07 7786.93 0 0 -7804.07z"/>
  <path class="fil3" d="M4740.63 5711.64l693.58 0 0 -3068.06 -801.36 -933.37 -1516.84 0 -801.36 933.37 0 3068.06 693.58 0 0 -1449.07 1732.4 0 0 1449.07zm-1282.78 -3307.85l833.16 0 449.62 523.7 0 641.5 -1732.4 0 0 -641.5 449.62 -523.7z"/>
  <polygon class="fil1" points="12527.56,4723.05 4740.63,4723.05 4740.63,12527.11 12527.56,12527.11 "/>
  <path class="fil3" d="M11833.98 5416.62l-6399.77 0 0 6416.92 6399.77 0 0 -6416.92zm693.58 -693.57l-7786.93 0 0 7804.06 7786.93 0 0 -7804.06z"/>
  <path class="fil4" d="M8637.18 10104.8c162.02,302.82 746.88,636.16 1101.05,636.16l978.71 0 0 -734.03 -758.5 0c-566.81,0 -954.25,-526.87 -954.25,-919.07l0 -279.85 1198.83 -0.1 0.1 -758.4 -1198.93 0 0 -782.97 954.25 0 0 -758.5 -1321.26 0 -1321.25 0 0 758.5 954.24 0 0 782.97 -1198.92 0 0.09 758.4 1198.83 0.1 0 279.85c0,392.2 -387.44,919.07 -954.24,919.07l-758.5 0 0 734.03 978.71 0c354.16,0 939.02,-333.34 1101.04,-636.16z"/>
  <path class="fil3" d="M15845.72 17636.1l0 247.65 0 89.96 1015.04 0.03c199.78,5.42 390.67,47.98 565.53,120.82 188.34,78.45 357.92,192.09 499.89,332.31 141.42,139.69 255.39,305.84 333.07,489.89 74.61,176.75 115.82,370.47 115.82,573.6 0,204.18 -41.49,398.77 -116.6,576.07 -78.13,184.43 -192.79,350.67 -335.09,490.04 -142.24,139.3 -312.35,251.68 -501.45,328.44 -181.86,73.83 -381.33,114.6 -590.51,114.6l-50 0 0 0.49 -9422.43 0.01 0 -0.49 -50 0c-1393.93,0 -2585.23,-1094.37 -2585.23,-2509.6l0 -13406.62c0,-199.42 160.6,-359.14 359.82,-359.14l50 0 0 -0.49 10302.35 -0.01 0 0.49 50 0c199.21,0 359.82,159.73 359.82,359.14l0 2523.32c0,15.61 2.76,30.61 7.75,44.65 5.18,14.61 12.76,27.95 22.11,39.65l0.19 0.2c2.06,2.57 4.2,5.05 6.41,7.44l-3.81 8.38 43.95 21.18c9.29,4.48 18.92,7.91 28.57,10.16 10.01,2.34 20.13,3.56 30.07,3.56 14.97,0 30.16,-2.51 44.92,-7.78 13.66,-4.87 27.04,-12.25 39.56,-22.33l892.95 -719.53c1031.09,-830.8 2591.07,-708.09 3465.16,305.9l0.95 1.11c747.21,867.79 777.94,2147.46 26.6,3046.06 -101.91,121.89 -216.88,234.9 -343.96,337.31l-3877.23 3124.25c-125.91,101.45 -236.16,79.58 -384.22,69.6l0 3759.68zm-719.65 337.55l0 -89.84 0 -247.71 0 -3787c0,-65.44 -46.86,-121.68 -111.91,-133.09l-1525.4 -271.51c-10.19,4.99 -77,52.02 -98.95,70.15l0.11 0.12c-807.65,662.9 -1845.31,1426.47 -2585.92,2123.7l-3.67 4.41c-16.96,20.09 -36.01,38.29 -56.73,54.15 -62.59,47.99 -139.8,73.79 -218.73,73.79l-50 0 0 0.49 -3339.44 0.01 0 -0.49 -50 0c-474.24,0 -474.19,-718.3 0,-718.3l50 0 0 -0.49 3220.43 0.02 47.35 -17 1171.49 -961.54c96.68,-79.56 41.87,-239.27 -85.55,-239.27l-50 0 0 0.49 -4303.72 0.01 0 -0.49 -50 0c-474.21,0 -474.22,-718.29 0,-718.29l50 0 0 -0.49 5580.03 0.01 47.28 -17.09 135.9 -111.51c53.55,-44.04 49.61,-93.18 49.61,-154.08l-0.5 0 -0.51 -2436.62 0.2 0c0,-74.38 23.46,-146.74 66.53,-207.3l2061.46 -1679.34c7.92,-6.35 15.01,-13.49 21.11,-21.17 6.07,-7.62 11.4,-16.22 15.87,-25.53l5.08 -10.57 0 -1.57c2.1,-5.54 3.8,-11.05 5.07,-16.48 2.34,-9.92 3.55,-19.94 3.55,-29.79l0 -2826.8c0,-75.73 -54.83,-135.2 -135.2,-135.2l-50 0 0 0.49 -9312.33 0.01 0 -0.49c-93.11,0 -185.2,11.47 -185.2,135.2l0 12912.27c0,1322.2 1398.2,2117.63 2576.21,1659.19 226.68,-88.22 430.7,-217.56 601.33,-378.84 170.56,-161.2 308.05,-354.42 401.91,-570.61 90.21,-207.79 140.01,-436.32 140.01,-677.47 0,-310.63 26.26,-548.74 446.43,-548.41l0 -0.48c1839.44,-0.16 3678.07,0.17 5516.8,0.35zm-71.49 -6756.38l-1166.1 957.12c-118.38,97.25 -220.75,-14.43 -220.75,-154.07l0.48 0 -0.27 -1338 -0.5 0 0 -50c0,-55.1 17.26,-76.23 50.67,-105.11l1179.89 -950.75 2.74 0c7.58,-4.51 15.39,-8.17 23.3,-11.01l0 -0.19c87.11,-31.17 179.87,35.1 179.87,127.44l0 50 -0.48 0 0.3 1320.5 0.5 0c0,62.82 2.45,111.25 -49.65,154.07zm2600.85 8273.11c0,107.26 -22.56,209.84 -63.37,303.64 -42.22,97.01 -104.04,184.31 -180.66,257.3 -76.05,72.45 -166.62,130.8 -266.95,170.52 -96.61,38.26 -202.38,59.4 -313.03,59.4l-50 0 0 -0.49 -7312.23 -0.01 0 0.49c-106.59,0 -225.91,-45.92 -176.94,-180.55 5.1,-13.97 12.72,-27.53 23.04,-40.08 73.58,-89.21 141.15,-181.96 202.02,-278.39 60.57,-95.94 114.55,-195.72 161.3,-299.49 46.37,-102.94 85.43,-209.65 116.52,-320.24 31.05,-110.39 54.23,-225.1 68.91,-344.25 12.7,-103.86 87.04,-118.75 184.06,-118.75l0 0.49 6786.69 0.01c110.35,0.43 215.7,21.86 311.8,60.28 99.74,39.87 189.83,98.28 265.56,170.68l0.09 -0.1c76.38,73.05 137.99,160.25 180.04,256.98 40.67,93.56 63.15,195.8 63.15,302.56zm-2046.61 -6398.33l-1127.28 -200.65 -1.89 -1.89c-102.33,-32.21 -130.97,-161.68 -44.73,-232.46l1118.15 -917.74 0 -0.19c22.35,-18.3 46.29,-32.99 59.33,-37.65l1430.12 254.55 1.84 1.84c103.45,32.06 129.97,164.42 43.74,233.57l-1155.75 931.26 -323.53 -30.64zm4286.44 -3204.24c-71.16,84.83 -151.63,163.75 -240.72,235.54l-1566.18 1262.01 -62.02 15.95 -1405.47 -250.13c-118.69,-20.8 -151.31,-164.06 -62.3,-237.15l1579.35 -1296.32c365.92,-301.21 -91.97,-855.68 -458.06,-555.19l-1635.43 1342.33c-118.38,97.25 -220.75,-14.44 -220.75,-154.07l0.48 0 -0.3 -1305.68 -0.5 0 0 -50c0,-9.88 1.23,-19.89 3.55,-29.78 1.35,-5.73 3.05,-11.35 5.07,-16.8l0 -1.47 5.08 -10.56c4.33,-9 9.67,-17.52 15.88,-25.34 6.13,-7.71 13.19,-14.83 21.1,-21.16l1537.05 -1238.56c739.28,-595.7 1844.95,-506.08 2466.72,215.98 73.27,85.1 136.98,175.76 190.69,270.71 337.2,596.1 264.28,1328.13 -173.24,1849.69z"/>
 </g>
</svg>
