<?xml version="1.0" encoding="UTF-8"?>
<!DOCTYPE svg PUBLIC "-//W3C//DTD SVG 1.1//EN" "http://www.w3.org/Graphics/SVG/1.1/DTD/svg11.dtd">
<!-- Creator: CorelDRAW 2018 (64-Bit) -->
<svg xmlns="http://www.w3.org/2000/svg" xml:space="preserve" width="210mm" height="210mm" version="1.1" style="shape-rendering:geometricPrecision; text-rendering:geometricPrecision; image-rendering:optimizeQuality; fill-rule:evenodd; clip-rule:evenodd"
viewBox="0 0 21000 21000"
 xmlns:xlink="http://www.w3.org/1999/xlink">
 <defs>
  <style type="text/css">
   <![CDATA[
    .fil4 {fill:black}
    .fil0 {fill:#5F94FF}
    .fil2 {fill:#FE4B64}
    .fil1 {fill:#FEFEFE}
    .fil3 {fill:black;fill-rule:nonzero}
    .fil5 {fill:#252422;fill-rule:nonzero}
   ]]>
  </style>
 </defs>
 <g id="Слой_x0020_1">
  <metadata id="CorelCorpID_0Corel-Layer"/>
  <path class="fil0" d="M6677.3 527.4c5168.2,0 3131.09,3004.08 6755.28,6273.93 3624.18,3269.84 7567.42,55.26 7567.42,6675.17 0,8286.81 -14940.9,8661.59 -19063.9,2224 -4404.19,-6876.65 -426.98,-15173.1 4741.2,-15173.1z"/>
  <path class="fil0" d="M17831.11 1580.93c1927.85,1342.98 2779.72,3452.26 1902.71,4711.21 -877.01,1258.95 -3150.8,1190.85 -5078.65,-152.13 -1927.85,-1342.98 -2779.72,-3452.26 -1902.71,-4711.21 877.01,-1258.95 3150.8,-1190.85 5078.65,152.13z"/>
  <polygon class="fil1" points="8797.02,2983.26 9484.93,1342.84 9193.89,527.39 8591.97,277.89 2473.49,258.04 1706.2,1084.87 2440.42,3313.98 2440.42,9783.05 1157.19,10113.78 232.67,11433.04 337.02,19003.83 985.25,20366.44 2347.86,20723.63 18725.62,20750.09 19387.07,20247.38 19675.45,18285.53 20114.72,17919.06 20751.38,15232.72 20194.09,14479.47 20657.11,11291.24 20114.72,10801.76 19228.36,10828.22 18884.4,10113.84 18090.65,10087.39 18077.45,9386.22 17535.06,9015.81 16741.31,9439.14 16529.64,10193.2 15378.7,10193.2 14889.22,10920.81 13314.95,10960.5 12709.93,13865.41 10669.11,10722.37 9359.42,9862.48 7785.15,9703.73 8340.78,8923.2 8420.12,6634.54 9782.72,6621.31 8988.97,4451.72 10113.45,4597.24 10576.45,3777.01 10133.27,3366.9 "/>
  <polygon class="fil2" points="4636.54,9955.04 5225.23,10967.07 4874.66,12547.96 5939.61,13321.87 6634.14,12435.51 6310.03,10841.39 6845.81,9835.98 "/>
  <path class="fil3" d="M8050.09 20299.98l1050 0 0 -2449.99 -1050 0 0 2449.99zm1007.17 -3748l857.76 734.99 655.9 -262.49 -1145.68 -916.53c-26.3,-20.96 -56,-37.23 -87.81,-48.12 -150.93,-50.88 -314.56,30.23 -365.4,181.17 -37.58,111.39 -3.76,234.36 85.41,310.93l-0.18 0.05zm2090.33 996.14l-1347.5 538.83 0 2213.03 1811.6 0c-57.53,-159.81 -74.91,-331.36 -50.49,-499.48l256.21 -1749.74 -669.82 -502.64zm-5427.49 -398.13l3751.16 -6840.35c-276.97,-105.05 -570.67,-159.12 -866.86,-159.65l-346.54 0 -3839.37 7000 1301.61 0zm151.89 -4106.19l336.66 -613.9 -253.75 -1522.51c-9.36,-56.3 -4.85,-114.06 13.13,-168.21l196.43 -589.19 -960.39 0 337.22 505.85c49.35,74.02 68.68,164.01 54.03,251.73l-258.12 1547.92 534.79 588.31zm-989.88 -2114.84l-519.31 -778.97 -1121.54 0 1496.25 1645.87 144.6 -866.9zm2467.98 -778.97l-447.74 0 -242.72 728.22 93.22 559.35 706.14 -1287.57 -108.9 0zm-4550 -699.99l4550 0c386.39,-0.44 699.56,-313.6 700,-700.01l0 -699.99 -1050 0 0 -700 1050 0 0 -700.01c0,-193.29 156.71,-349.99 350,-349.99l883.04 0 -590.62 -1476.3c-1565.17,-225.57 -2447.04,-535.84 -3595.07,-1159.56l-215.5 646.63c-47.65,142.81 -181.31,239.14 -331.85,239.23l-338.18 0c-257.87,-0.35 -482.75,175.13 -545.09,425.34 -56.31,254.71 63.8,515.77 293.83,638.74l44.8 22.19c173.2,85.79 244.08,295.75 158.29,469 -16.89,34.08 -39.25,65.23 -66.15,92.13l-1297.5 1297.59 0 1955.01zm187.61 -4644.5c153.62,-612.99 701.83,-955.51 1310.09,-955.51l116.72 -349.99 -1614.42 0 0 3005.01 509.86 -509.87c-305.07,-314.6 -426.82,-764.05 -322.25,-1189.64zm-300.66 -2005.5l4781.48 0c-52.72,-110.65 -90.83,-228.37 -105.75,-350.01 -32.76,-267.15 7.81,-498.9 105.75,-699.99 207.12,-425.2 633.59,-699.56 1106.57,-700l492.75 0c-75.95,-209.74 -274.92,-349.61 -498,-350.01l-5939.5 0c-292.79,-0.17 -530.25,237.05 -530.43,529.82 -0.06,67.82 12.93,135.06 38.24,198.01l548.89 1372.18zm5827.46 -3.51l281.13 -702.75 137.51 -343.74 -358.05 0c-289.94,-0.04 -525.04,234.98 -525.04,524.91 -0.04,266.57 199.67,490.83 464.45,521.58l0 0zm200.94 703.51l-2339.01 0c1125.48,461.69 2330.17,699.47 3546.69,700 125.34,0 226.97,-101.68 226.97,-227.02 -0.05,-108.15 -76.39,-201.25 -182.44,-222.51l-1252.21 -250.47zm6434.48 8049.99l3539.38 0 199.32 -786.05c23.14,-66.02 14.8,-138.96 -22.57,-198.1 -43.89,-46.9 -106.89,-71.05 -170.84,-65.63l-710.11 0c-193.29,0.05 -350.01,-156.67 -350.04,-349.95 0,-29.05 3.63,-57.97 10.76,-86.1l88.76 -350c23.07,-66.02 14.75,-138.99 -22.57,-198.15 -43.93,-46.85 -106.93,-71.05 -170.88,-65.62 -233.33,0 -489.62,203.75 -548.55,436.05l-88.77 350c-39.5,155.1 -179.24,263.6 -339.27,263.56l-710.24 0c-233.32,0 -489.7,203.73 -548.58,436.05l-155.8 613.94zm5090.48 3596.26c-49.43,-61.25 -124.06,-96.7 -202.81,-96.25l-1129.24 0c-166.69,0.38 -310.1,118.03 -343.17,281.39l-440.92 2204.6c-28.43,142.2 63.75,280.49 205.94,308.89 16.88,3.41 34.17,5.11 51.44,5.11l1128.98 0c166.73,-0.35 310.19,-117.95 343.21,-281.36l440.95 -2204.65c15.89,-77.09 -4.1,-157.19 -54.38,-217.73zm-20197.57 4176.43c-28.48,-139.1 -42.83,-280.71 -42.74,-422.7l0 -6299.98 700 0 0 6299.98c0.87,772.85 627.16,1399.18 1400,1400l5250 0 0 -2449.99 -4200 0c-193.31,0 -350,-156.71 -350,-350l0 -4200 700 0 0 3850 120.05 0 1895.9 -3457.12 -811.03 -891.97c-0.44,-0.48 -0.78,-1.05 -1.27,-1.54l-2402.39 -2642.59c-904.93,78.18 -1600.04,834.98 -1601.26,1743.22l-700 0c1.61,-1217.25 895.48,-2249.22 2100,-2424.57l0 -6258.01 -611.96 -1529.93c-174.13,-457.67 -68.16,-974.71 271.94,-1326.98 230.39,-231.4 543.72,-361.21 870.27,-360.5l5939.5 0c679.57,0.22 1230.29,551.29 1230.08,1230.86 -0.05,156.58 -29.98,311.72 -88.2,457.06l-480.38 1201.37 873.6 174.74c501.99,100.37 827.66,588.65 727.3,1090.68 -86.63,433.4 -467.17,745.37 -909.12,745.29 -150.34,0 -300.39,-3.46 -450.24,-10.42l652.18 1630.43c71.8,179.47 -15.52,383.16 -194.99,454.96 -41.34,16.54 -85.44,25.02 -129.98,25.02l-1050 0 0 1750c0.17,245.89 -64.8,487.42 -188.34,700.01l42.65 0c1082.33,-0.09 2088.93,555.54 2665.69,1471.39l964.42 1531.87 -592.55 372.93 -964.3 -1531.61c-157.71,-249.07 -358.87,-467.81 -593.86,-645.84l-3565.31 6501.25 2160.86 0 -77.48 -66.37c-414.37,-354.46 -462.93,-977.73 -108.42,-1392.12 155.09,-181.25 370.56,-300.3 606.64,-335l0 -2056.51 700 0 0 951.57 1506.36 2465.31 632.36 505.88 852.21 -5822.16c82.47,-519.44 530.86,-901.56 1056.82,-900.59l883.13 0c217.97,-408.06 666.1,-700.01 1123.33,-700.01l437.98 0 21.87 -86.05c136.99,-540.54 676.03,-963.95 1226.98,-963.95 482.42,-18.76 888.73,357.14 907.5,839.57 2.71,70.57 -3.11,141.22 -17.37,210.43l264.07 0c280.23,-6.3 547.45,117.87 723.37,336 82.38,106.8 138.46,231.49 163.58,364.01l350.3 0c311.9,-0.79 608.75,134.17 813.23,369.77 197.75,228.07 286.52,530.94 243.17,829.72l-412.39 2815.7c321.12,217.18 480.63,605.86 404.6,986.04l-440.97 2204.69c-99.13,490.18 -529.46,842.97 -1029.6,844.06l-1128.98 0c-531.55,0 -962.49,-430.88 -962.53,-962.48 0,-63.36 6.3,-126.57 18.73,-188.74l440.9 -2204.7c99.18,-490.18 529.51,-842.93 1029.61,-844.07l984.86 0 403.03 -2751.87c14.48,-97.61 -14.84,-196.61 -80.16,-270.59 -71.48,-81.69 -174.96,-128.23 -283.5,-127.54l-432.24 0 -199.38 786.07c-39.37,155.21 -179.1,263.94 -339.27,263.94l-4261.6 0c-193.29,0 -350,-156.67 -350.05,-349.96 0,-29.05 3.64,-57.97 10.77,-86.11l155.75 -613.94 -668.72 0c-179.11,-2.66 -333.55,125.35 -364.22,301.88l-1229.77 8399.98c-14.26,96.31 14.01,194.05 77.53,267.8 69.3,81 170.01,128.42 276.58,130.22l9.36 0.33 6085.02 0c179.11,2.67 333.55,-125.33 364.22,-301.87l116.9 -798.65 692.65 101.42 -116.95 798.83c-82.73,519.23 -531.03,901.06 -1056.82,900.06l-16602.25 0c-996.47,-1.27 -1855.35,-701.52 -2057.26,-1677.31zm4157.26 -422.7l0 700.01 700.01 0 0 -700.01 -700.01 0zm2099.99 0l0 700.01 -699.99 0 0 -700.01 699.99 0z"/>
  <path class="fil4" d="M11587.68 12739.97l825.98 1311.91 592.55 -372.93 -848.78 -1348.18 -569.75 409.2zm7576.25 6593.1l150.35 -992.44 722.34 -110.2 -182.67 1222.01 -690.02 -119.37zm-19163.84 -6462.7l700 0 0 -1018.84 -700 0 0 1018.84z"/>
  <path class="fil5" d="M6453.7 5587.38c475.51,0 862.46,-386.95 862.46,-862.45l-574.97 0c0,158.4 -129.09,287.48 -287.49,287.48 -158.42,0 -287.5,-129.08 -287.5,-287.48l-574.97 0c0,475.5 386.95,862.45 862.47,862.45z"/>
 </g>
</svg>
