<?xml version="1.0" encoding="UTF-8"?>
<!DOCTYPE svg PUBLIC "-//W3C//DTD SVG 1.1//EN" "http://www.w3.org/Graphics/SVG/1.1/DTD/svg11.dtd">
<!-- Creator: CorelDRAW 2018 (64-Bit) -->
<svg xmlns="http://www.w3.org/2000/svg" xml:space="preserve" width="210mm" height="210mm" version="1.1" style="shape-rendering:geometricPrecision; text-rendering:geometricPrecision; image-rendering:optimizeQuality; fill-rule:evenodd; clip-rule:evenodd"
viewBox="0 0 21000 21000"
 xmlns:xlink="http://www.w3.org/1999/xlink">
 <defs>
  <style type="text/css">
   <![CDATA[
    .fil3 {fill:black}
    .fil0 {fill:#5F94FF}
    .fil2 {fill:#FE4B64}
    .fil1 {fill:#FEFEFE}
   ]]>
  </style>
 </defs>
 <g id="Слой_x0020_1">
  <metadata id="CorelCorpID_0Corel-Layer"/>
  <path class="fil0" d="M6677.3 527.4c5168.2,0 3131.09,3004.08 6755.28,6273.93 3624.18,3269.84 7567.42,55.26 7567.42,6675.17 0,8286.81 -14940.9,8661.59 -19063.9,2224 -4404.19,-6876.65 -426.98,-15173.1 4741.2,-15173.1z"/>
  <path class="fil0" d="M17831.11 1580.93c1927.85,1342.98 2779.72,3452.26 1902.71,4711.21 -877.01,1258.95 -3150.8,1190.85 -5078.65,-152.13 -1927.85,-1342.98 -2779.72,-3452.26 -1902.71,-4711.21 877.01,-1258.95 3150.8,-1190.85 5078.65,152.13z"/>
  <polygon class="fil1" points="12053.32,254.75 12688.32,4474.86 13971.55,5890.38 14728.51,6190.37 14712.38,7054.55 14415.81,7538.54 13614.36,7742.47 13402.7,8734.66 12767.7,9065.38 12714.78,10864.55 18099.05,10957.16 18072.59,8919.86 17397.9,8906.63 17358.22,8165.8 17001.03,7610.17 16273.42,7438.2 16048.53,6194.65 17278.84,5586.11 18151.97,4382.25 18720.82,254.75 "/>
  <polygon class="fil2" points="14183.22,2569.86 14738.84,3323.92 14500.72,4077.98 15360.61,3720.8 16127.9,4064.75 16022.07,3151.94 16524.78,2609.54 15744.26,2450.79 15347.38,1762.88 14844.67,2503.71 "/>
  <path class="fil3" d="M20013.74 0c-159.15,0 -9090.35,0 -9248.9,0 -543.81,0 -986.26,442.45 -986.26,986.26l0 500.92c0,811.35 279.1,1607.12 786.01,2240.65 421.56,526.94 1021.19,939.68 1688.46,1162.11l348.44 116.09c404.69,659.38 1039.42,1167.32 1801.55,1408.58l0 511.11c0,181.24 -147.51,328.76 -328.76,328.76 -543.81,0 -986.25,442.44 -986.25,986.25l0 328.76 -328.76 -0.01c-181.58,0 -328.75,147.17 -328.75,328.76l0 1665.68 -328.76 0c-181.58,0 -328.75,147.16 -328.75,328.75 0,181.59 147.16,328.76 328.75,328.76l6575.06 -0.01c181.58,0 328.75,-147.17 328.75,-328.76 0,-181.58 -147.16,-328.75 -328.75,-328.75l-328.76 0.01 0 -1665.68c0,-181.59 -147.16,-328.76 -328.75,-328.76l-328.75 0 0 -328.75c0,-543.81 -442.45,-986.26 -986.26,-986.26 -181.24,0 -328.75,-147.51 -328.75,-328.75l0 -511.11c761.26,-241 1395.4,-748 1800.17,-1406.36l367.45 -116.95c1.37,-0.42 2.83,-0.94 4.2,-1.36 657.42,-219.17 1233.76,-621.04 1666.62,-1162.11 506.91,-633.53 786.01,-1429.3 786.01,-2240.65l0 -500.92c0,-543.81 -442.45,-986.26 -986.26,-986.26zm-8935.73 3317.06c-413.93,-517.44 -641.92,-1167.24 -641.92,-1829.88l0 -500.92c0,-181.24 147.51,-328.76 328.75,-328.76l1042.67 0 334.58 3011.17c19.61,176.11 53.76,348.1 100.51,515.05 -459.75,-193.23 -867.52,-495.35 -1164.59,-866.66l0 0zm2010.01 7246.86l0 -1336.93 4602.54 0 0 1336.92 -4602.54 0.01zm2885.06 -4720.52c-149.31,34.34 -255.04,167.21 -255.04,320.37l0 761.95c0,543.81 442.44,986.25 986.26,986.25 181.24,0 328.75,147.52 328.75,328.76l0 328.75 -3287.52 0 0 -328.75c0,-181.24 147.51,-328.76 328.75,-328.76 543.82,0 986.26,-442.44 986.26,-986.25l0 -761.95c0,-153.16 -105.73,-286.03 -255.04,-320.37 -1080.52,-248.61 -1888.18,-1151.74 -2009.93,-2247.33l-326.52 -2938.57 5840.49 0 -326.53 2938.57c-121.74,1095.59 -929.41,1998.72 -2009.92,2247.33l-0.01 0zm4369.42 -4356.22c0,662.64 -227.99,1312.44 -641.92,1829.88 -310.35,388 -711.02,688.16 -1167.5,876.85 48.28,-170.2 83.38,-345.54 103.42,-525.24l334.57 -3011.17 1042.67 0c181.24,0 328.76,147.52 328.76,328.76l0 500.92zm0 0z"/>
  <path class="fil3" d="M16750.44 2251.1l-738.75 -104.79 -329.01 -650.83c-55.91,-110.69 -169.42,-180.47 -293.39,-180.47 -123.97,0 -237.49,69.78 -293.39,180.47l-329.01 650.83 -738.84 104.79c-124.74,17.72 -228.41,105.21 -266.85,225.24 -38.44,120.03 -4.88,251.53 86.38,338.34l529.94 504.35 -124.73 709.98c-21.58,122.95 28.25,247.51 128.67,321.56 100.68,74.15 234.41,84.68 345.19,27.83l662.64 -340.14 662.55 340.14c111.04,57.02 244.77,46.23 345.19,-27.83 100.51,-74.14 150.33,-198.61 128.76,-321.56l-124.73 -709.98 529.86 -504.35c91.35,-86.89 124.91,-218.31 86.46,-338.34 -38.43,-120.03 -142.11,-207.52 -266.94,-225.24zm-930.26 713.07c-79.79,75.93 -116.26,186.63 -97.17,295.1l40.75 232.18 -224.39 -115.15c-94.17,-48.37 -205.99,-48.37 -300.25,0l-224.38 115.15 40.83 -232.18c19.01,-108.47 -17.46,-219.17 -97.17,-295.1l-165.49 -157.45 236.21 -33.56c106.41,-15.06 198.7,-81.25 247.16,-177.13l113.01 -223.54 112.92 223.45c48.54,95.97 140.84,162.15 247.25,177.22l236.21 33.47 -165.49 157.54zm0 0z"/>
  <ellipse class="fil1" cx="6661.67" cy="12661.78" rx="6438.43" ry="6438.45"/>
  <polygon class="fil1" points="337.2,16450.57 363.66,19943.07 2030.54,20022.44 2162.82,20763.28 3829.7,20723.6 3882.61,18977.34 9544.7,18924.43 9584.38,20723.6 11238.03,20736.83 11330.63,19863.7 12957.82,19890.16 12891.68,16424.11 11277.72,16318.28 11224.8,15683.28 9571.15,15617.13 9505.01,17389.84 3909.07,17363.38 3644.49,15736.2 2043.76,15590.67 1990.84,16384.43 "/>
  <path class="fil3" d="M11240.08 21000l-1721.56 0c-199.73,0 -361.68,-161.95 -361.68,-361.68l0 -1377.28 -4990.41 0 0 1377.28c0,199.73 -161.95,361.68 -361.69,361.68l-1721.54 0c-199.74,0 -361.68,-161.95 -361.68,-361.68l0 -313.72 -1359.83 0.01c-199.74,0 -361.68,-161.95 -361.68,-361.69l0 -3611.19c0,-199.74 161.94,-361.68 361.68,-361.68l1359.78 0 0 -313.66c0,-199.74 161.95,-361.69 361.69,-361.69l1721.54 0c199.74,0 361.69,161.95 361.69,361.69l0 1377.28 4990.46 0 0 -1377.28c0,-199.74 161.94,-361.69 361.68,-361.69l1721.55 0c199.74,0 361.68,161.95 361.68,361.69l0 313.66 1359.78 0c199.74,0 361.69,161.95 361.69,361.69l0 3611.15c0,199.74 -161.95,361.68 -361.69,361.68l-1359.78 0 0 313.71c0,199.77 -161.9,361.72 -361.68,361.72zm-1359.83 -723.36l998.19 0 0 -4238.58 -998.19 0 0 4238.58zm-7435.37 0l998.19 0 0 -4238.58 -998.19 0 0 4238.58zm9156.88 -675.43l998.1 0 0 -2887.8 -998.1 0 0 2887.8zm-10878.39 0l998.1 0 0 -2887.8 -998.1 0 0 2887.8zm3443.06 -1063.53l4990.46 0 0 -760.66 -4990.46 0.01 0 760.65zm1682.36 -2215.52c-60.18,0 -121.16,-15.01 -177.32,-46.66 -174.01,-98.1 -235.49,-318.73 -137.43,-492.69 645.28,-1144.36 1516.48,-2111.86 2541.44,-2856.42 -447.31,-619.51 -958.32,-1183.28 -1522.72,-1683.03 -1402.37,1510.15 -3316.39,2527.06 -5443.07,2784.89 47.11,190.29 104.12,378.32 171.07,563.69 67.86,187.84 -29.38,395.17 -217.28,463.04 -187.98,67.9 -395.17,-29.43 -463.04,-217.32 -251.87,-697.32 -379.59,-1428.6 -379.59,-2173.57 0.01,-3551.48 2889.34,-6440.76 6440.81,-6440.76 3551.42,0 6440.71,2889.28 6440.71,6440.76 0,641.03 -95.12,1274.96 -282.79,1884.35 -58.82,190.92 -261.32,297.89 -452.11,239.21 -190.92,-58.78 -297.98,-261.18 -239.2,-452.1 166.37,-540.31 250.73,-1102.67 250.73,-1671.46 0,-220.13 -12.48,-437.32 -36.8,-651.03 -1169.63,135.5 -2278.72,520.87 -3262.9,1114.97 213.07,339.26 407.66,689.59 581.99,1048.96 87.17,179.71 12.16,396.09 -167.55,483.26 -179.71,87.02 -396.13,12.15 -483.25,-167.6 -161.54,-333.02 -339.12,-654.91 -531.72,-964.82 -932.64,682.26 -1725.89,1566.16 -2314.57,2610.24 -66.53,117.86 -189.14,184.09 -315.41,184.09zm-3564.45 -7332.29c-836.02,994.35 -1340.12,2276.51 -1340.12,3674.22 0,218.54 12.39,435.77 37.03,650.97 1955.65,-226.9 3717.75,-1152.13 5012.57,-2532.3 -1089.38,-834.53 -2346,-1448.35 -3709.48,-1792.89zm4734.75 1709.16c615.99,544.69 1172.57,1160.27 1655.19,1828.38 1066.87,-650.03 2270.35,-1074.1 3540.25,-1227.68 -451.51,-1837.11 -1793.34,-3328.14 -3539.89,-3987.25 -308.47,1258.93 -882.28,2407.07 -1655.55,3386.55zm-4159.69 -2301.28c1296.72,382.39 2527.88,1010.76 3602.39,1840.46 713.01,-907.14 1240.34,-1971.43 1519.96,-3137.67 -423.8,-100.55 -865.95,-153.85 -1320.09,-153.85 -1458.52,0 -2791.13,548.85 -3802.26,1451.06z"/>
 </g>
</svg>
