<?xml version="1.0" encoding="UTF-8"?>
<!DOCTYPE svg PUBLIC "-//W3C//DTD SVG 1.1//EN" "http://www.w3.org/Graphics/SVG/1.1/DTD/svg11.dtd">
<!-- Creator: CorelDRAW 2018 (64-Bit) -->
<svg xmlns="http://www.w3.org/2000/svg" xml:space="preserve" width="210mm" height="210mm" version="1.1" style="shape-rendering:geometricPrecision; text-rendering:geometricPrecision; image-rendering:optimizeQuality; fill-rule:evenodd; clip-rule:evenodd"
viewBox="0 0 21000 21000"
 xmlns:xlink="http://www.w3.org/1999/xlink">
 <defs>
  <style type="text/css">
   <![CDATA[
    .fil4 {fill:black}
    .fil0 {fill:#5F94FF}
    .fil2 {fill:#FE4B64}
    .fil1 {fill:#FEFEFE}
    .fil3 {fill:black;fill-rule:nonzero}
   ]]>
  </style>
 </defs>
 <g id="Слой_x0020_1">
  <metadata id="CorelCorpID_0Corel-Layer"/>
  <path class="fil0" d="M6677.3 527.4c5168.2,0 3131.09,3004.08 6755.28,6273.93 3624.18,3269.84 7567.42,55.26 7567.42,6675.17 0,8286.81 -14940.9,8661.59 -19063.9,2224 -4404.19,-6876.65 -426.98,-15173.1 4741.2,-15173.1z"/>
  <path class="fil0" d="M17831.11 1580.93c1927.85,1342.98 2779.72,3452.26 1902.71,4711.21 -877.01,1258.95 -3150.8,1190.85 -5078.65,-152.13 -1927.85,-1342.98 -2779.72,-3452.26 -1902.71,-4711.21 877.01,-1258.95 3150.8,-1190.85 5078.65,152.13z"/>
  <polygon class="fil1" points="4141.43,20722.49 4114.97,19029.16 4961.64,17997.28 6654.97,17891.45 7713.31,18738.11 7713.31,16171.66 8586.43,15166.24 10500,15166.24 11443.93,15933.53 11470.39,13552.28 11920.18,12652.7 13031.43,12335.2 14407.27,12493.95 15042.27,13340.61 15042.27,21037.5 "/>
  <polygon class="fil2" points="16973.73,4133.11 13481.23,8948.53 14989.35,9213.11 15042.27,20643.12 18667.06,20616.66 18835.69,9005.22 20439.77,9107.28 "/>
  <path class="fil3" d="M20888.85 8849.61l-3666.61 -4949.88c-4,-5.39 -8.57,-11.14 -13.59,-17.15 -4.91,-5.87 -9.83,-11.43 -14.7,-16.61 -5.28,-5.62 -10.58,-10.95 -15.82,-15.94 -4.14,-3.94 -8.39,-7.78 -12.7,-11.51l-3.2 -2.69c-5.56,-4.67 -11.47,-9.36 -17.66,-13.99 -5.96,-4.46 -11.82,-8.6 -17.52,-12.35 -5.97,-3.93 -12.14,-7.73 -18.44,-11.36 -6.31,-3.64 -12.95,-7.21 -19.81,-10.65l-0.15 0c-7.28,-3.66 -13.91,-6.79 -19.81,-9.34 -5.99,-2.59 -12.73,-5.25 -20.12,-7.93 -6.52,-2.37 -13.33,-4.63 -20.39,-6.72l-0.14 0c-6.7,-2 -13.99,-3.94 -21.76,-5.78 -7,-1.68 -14.23,-3.19 -21.6,-4.49 -7.39,-1.3 -14.55,-2.37 -21.41,-3.17 -7.69,-0.89 -15,-1.55 -21.77,-1.93 -6.27,-0.35 -13.74,-0.54 -22.36,-0.54 -8.62,0 -16.1,0.19 -22.37,0.54 -6.78,0.38 -14.09,1.04 -21.78,1.93 -6.88,0.8 -14.04,1.87 -21.44,3.18 -7.04,1.25 -14.28,2.76 -21.62,4.5l-0.14 0c-7.31,1.73 -14.53,3.66 -21.56,5.75l-0.14 0c-7.11,2.11 -13.95,4.37 -20.49,6.74 -6.06,2.2 -12.81,4.92 -20.21,8.11l-0.05 -0.12c-5.85,2.54 -12.43,5.65 -19.69,9.3l-0.15 0c-6.8,3.42 -13.38,6.97 -19.68,10.59 -7.06,4.16 -13.3,7.99 -18.61,11.48 -5.62,3.7 -11.63,7.94 -17.94,12.63 -6.28,4.79 -11.99,9.29 -16.97,13.49l-0.15 0c-4.56,3.84 -9.85,8.63 -15.81,14.3 -5.22,4.97 -10.52,10.32 -15.81,15.96 -4.82,5.14 -9.71,10.69 -14.63,16.58 -5.01,6 -9.56,11.76 -13.59,17.19l-3666.62 4949.88c-5.46,7.38 -10.41,14.54 -14.8,21.4 -4.57,7.16 -8.97,14.59 -13.12,22.23 -4.09,7.51 -7.95,15.21 -11.52,23.01 -3.41,7.46 -6.76,15.53 -10,24.12 -2.96,7.83 -5.75,16.08 -8.32,24.62 -2.71,9.01 -4.94,17.37 -6.68,25.03 -1.66,7.38 -3.23,15.78 -4.66,25.18 -1.32,8.61 -2.37,17.35 -3.11,26.13 -0.87,10.27 -1.38,19.17 -1.52,26.68 -0.14,8.34 0.02,17 0.48,25.91 0.39,7.65 1.17,16.23 2.32,25.63 1.11,9.06 2.47,17.74 4.06,25.96 1.66,8.64 3.59,17.1 5.77,25.3 2.15,8.11 4.68,16.42 7.56,24.86 3.02,8.84 6.08,16.98 9.13,24.23l0.15 0c3.6,8.58 7.19,16.43 10.72,23.43 3.85,7.66 8.08,15.36 12.61,23.01 4.68,7.91 9.33,15.2 13.91,21.83 5.2,7.56 10.3,14.45 15.25,20.64l0.15 0c5.97,7.5 11.62,14.13 16.89,19.88 6.07,6.47 12.2,12.71 18.4,18.59 5.9,5.58 12.46,11.37 19.64,17.3 6.9,5.81 13.93,11.24 20.96,16.3 6.05,4.35 13.11,9.02 21.15,13.96l0 0.14c6.75,4.15 14.23,8.39 22.34,12.65 7.25,3.86 15.04,7.6 23.29,11.22 8.29,3.63 16.35,6.85 24.12,9.63l0.04 -0.12c8.63,3.09 16.91,5.76 24.78,7.99 8.68,2.46 17.17,4.56 25.42,6.29 8.56,1.8 17.04,3.29 25.36,4.43 8.01,1.1 16.6,1.97 25.69,2.57 7.98,0.53 16.83,0.81 26.49,0.81l1456.76 0 0 2843.03 -199.58 -102.83c-16.51,-8.49 -32.04,-16.23 -46.44,-23.11 -13.35,-6.38 -29.19,-13.64 -47.49,-21.74 -19.29,-8.54 -35.55,-15.51 -48.69,-20.88 -15.18,-6.2 -30.97,-12.37 -47.31,-18.47 -14.56,-5.42 -30.8,-11.19 -48.73,-17.28 -17.07,-5.78 -33.58,-11.13 -49.44,-15.99 -16.48,-5.09 -33.09,-9.93 -49.77,-14.5 -16.03,-4.39 -32.69,-8.7 -49.96,-12.88 -16.22,-3.93 -33.09,-7.75 -50.49,-11.41 -17.85,-3.77 -34.72,-7.09 -50.5,-9.92 -14.2,-2.54 -30.84,-5.24 -50.13,-8.08 -16.67,-2.46 -34.14,-4.78 -52.31,-6.93 -20.2,-2.39 -37.6,-4.25 -52.04,-5.54 -15.75,-1.4 -32.88,-2.66 -51.35,-3.75 -17.65,-1.03 -34.76,-1.8 -51.17,-2.26 -14.2,-0.4 -31.96,-0.61 -53.11,-0.61l-916.62 0c-58.99,0 -116.47,2.8 -172.34,8.26 -56.74,5.54 -113.36,13.98 -169.62,25.14 -57.05,11.31 -112.43,25.18 -165.93,41.4 -54.33,16.48 -108.08,35.8 -161.01,57.76 -53.67,22.26 -105.55,46.83 -155.42,73.54 -50.56,27.07 -99.74,56.63 -147.32,88.48 -47.71,31.94 -93.82,66.23 -138.13,102.66 -43.82,36.02 -86.56,74.88 -128.01,116.33 -41.47,41.47 -80.32,84.23 -116.35,128.04 -36.42,44.3 -70.71,90.41 -102.64,138.1 -31.85,47.58 -61.4,96.75 -88.47,147.3 -26.71,49.88 -51.29,101.76 -73.56,155.44 -21.96,52.94 -41.28,106.68 -57.75,160.99 -16.22,53.5 -30.09,108.88 -41.41,165.95 -11.16,56.28 -19.6,112.91 -25.14,169.66 -5.46,55.86 -8.26,113.34 -8.26,172.3l0 1294.69 -199.59 -102.83c-16.47,-8.48 -31.85,-16.14 -46.19,-23l-0.06 0.12c-16.22,-7.74 -32.16,-15.1 -47.71,-21.98 -19.42,-8.59 -35.62,-15.54 -48.74,-20.9 -15.17,-6.2 -30.9,-12.35 -47.21,-18.43 -14.54,-5.41 -30.81,-11.19 -48.75,-17.28 -17.08,-5.78 -33.59,-11.13 -49.45,-15.99 -17.32,-5.31 -33.89,-10.14 -49.61,-14.45 -16.08,-4.41 -32.81,-8.73 -50.09,-12.92 -16.15,-3.91 -32.91,-7.71 -50.23,-11.36 -17.93,-3.78 -34.83,-7.12 -50.64,-9.96 -14.17,-2.54 -30.95,-5.25 -50.23,-8.09 -16.7,-2.46 -34.17,-4.79 -52.35,-6.94 -20.2,-2.39 -37.6,-4.25 -52.03,-5.54 -15.75,-1.4 -32.89,-2.66 -51.36,-3.75 -17.63,-1.03 -34.73,-1.8 -51.15,-2.26 -14.2,-0.4 -31.95,-0.61 -53.11,-0.61l-916.62 0c-58.98,0 -116.48,2.8 -172.34,8.26 -56.73,5.55 -113.33,13.98 -169.59,25.15 -57.05,11.3 -112.4,25.16 -165.9,41.38 -54.34,16.48 -108.11,35.81 -161.07,57.78 -53.66,22.27 -105.54,46.85 -155.43,73.57 -50.55,27.07 -99.73,56.63 -147.29,88.47 -47.69,31.93 -93.79,66.22 -138.09,102.63 -43.82,36.04 -86.58,74.89 -128.06,116.37 -41.06,40.94 -79.88,83.72 -116.31,128.02 -36.45,44.32 -70.74,90.45 -102.69,138.16 -31.84,47.57 -61.4,96.74 -88.48,147.3 -26.7,49.88 -51.29,101.76 -73.55,155.43 -21.95,52.96 -41.27,106.72 -57.75,161.08 -16.22,53.49 -30.09,108.86 -41.41,165.93 -11.16,56.26 -19.59,112.88 -25.13,169.62 -5.46,55.87 -8.26,113.35 -8.26,172.33l0 1294.37 -199.6 -102.65c-16.46,-8.47 -31.9,-16.14 -46.29,-23.02l-0.06 0.12c-16.21,-7.73 -32.15,-15.07 -47.73,-21.96 -16.35,-7.24 -32.59,-14.15 -48.67,-20.71l0 -0.15c-15.2,-6.21 -31.02,-12.39 -47.37,-18.48 -14.54,-5.42 -30.83,-11.19 -48.71,-17.26 -18.07,-6.12 -34.56,-11.47 -49.45,-16.03l-0.15 0c-17.35,-5.31 -33.93,-10.15 -49.66,-14.46 -16.06,-4.4 -32.77,-8.71 -50.05,-12.9 -16.23,-3.93 -33.07,-7.75 -50.42,-11.4 -17.85,-3.77 -34.68,-7.08 -50.46,-9.91 -14.19,-2.54 -30.83,-5.24 -50.08,-8.08 -16.73,-2.47 -34.21,-4.8 -52.41,-6.95 -20.28,-2.4 -37.74,-4.27 -52.23,-5.57 -15.89,-1.42 -32.86,-2.67 -50.87,-3.72 -17.68,-1.03 -34.82,-1.8 -51.26,-2.26 -14.17,-0.4 -31.91,-0.61 -53.04,-0.61l-916.76 0c-58.99,0 -116.47,2.8 -172.34,8.26 -56.73,5.55 -113.33,13.98 -169.59,25.15 -57.06,11.31 -112.44,25.17 -165.95,41.39 -54.33,16.48 -108.08,35.8 -161.01,57.77 -53.68,22.27 -105.56,46.87 -155.45,73.57 -50.54,27.07 -99.72,56.63 -147.29,88.47 -47.72,31.94 -93.83,66.24 -138.15,102.68 -44.32,36.45 -87.06,75.24 -127.99,116.18 -41.04,41.05 -79.9,83.86 -116.37,128.23 -36.42,44.3 -70.71,90.41 -102.63,138.11 -31.84,47.57 -61.4,96.76 -88.47,147.31 -26.71,49.88 -51.29,101.75 -73.55,155.43 -21.96,52.95 -41.27,106.7 -57.75,161.04 -16.22,53.5 -30.09,108.88 -41.41,165.96 -11.16,56.29 -19.6,112.93 -25.15,169.68 -5.45,55.85 -8.26,113.31 -8.26,172.27l0 998.5 -3362.85 0c-85.11,0 -162.52,34.85 -218.64,90.97 -56.12,56.12 -90.97,133.53 -90.97,218.64l0 443.37 18715.02 0c13.51,0 26,-0.58 37.45,-1.68 11.77,-1.14 24,-2.98 36.57,-5.46 12.14,-2.39 24.04,-5.36 35.59,-8.83 12.11,-3.7 23.63,-7.8 34.43,-12.28l7.22 -2.93c8.91,-3.9 17.62,-8.14 26.07,-12.65 11.15,-6.05 21.76,-12.42 31.7,-19.07 10.13,-6.78 19.99,-14.13 29.49,-21.97 8.88,-7.32 18.16,-15.81 27.72,-25.37 9.58,-9.58 18.06,-18.84 25.37,-27.71 7.85,-9.51 15.2,-19.38 21.98,-29.51 6.91,-10.34 13.29,-20.91 19.03,-31.63 4.55,-8.51 8.8,-17.26 12.73,-26.24l2.88 -6.96c4.36,-10.53 8.45,-22.07 12.23,-34.58 3.56,-11.8 6.55,-23.71 8.9,-35.59 2.47,-12.57 4.32,-24.81 5.45,-36.56 1.1,-11.46 1.68,-23.96 1.68,-37.47l0 -11173.06 1456.88 0c9.67,0 18.52,-0.28 26.51,-0.81 9.09,-0.6 17.68,-1.47 25.7,-2.57 8.32,-1.14 16.8,-2.63 25.36,-4.43 8.24,-1.73 16.73,-3.83 25.4,-6.29 9.11,-2.56 17.37,-5.19 24.74,-7.83l0 -0.14c8.97,-3.21 17.04,-6.4 24.2,-9.53 8.27,-3.62 16.07,-7.36 23.34,-11.16 7.52,-3.94 14.98,-8.19 22.29,-12.7 7.14,-4.4 14.23,-9.13 21.22,-14.15 6.27,-4.51 13.26,-9.95 20.89,-16.25l9.25 -7.65 10.14 -9.33c6.15,-5.86 12.36,-12.21 18.58,-18.98 5.32,-5.67 10.95,-12.27 16.9,-19.74l0.15 0c4.97,-6.21 10.1,-13.15 15.34,-20.73 4.55,-6.6 9.19,-13.88 13.88,-21.8 4.54,-7.67 8.76,-15.37 12.62,-23.03 4.12,-8.19 7.77,-16.03 10.88,-23.43l-0.13 -0.05c3.58,-8.54 6.68,-16.62 9.26,-24.18 2.87,-8.44 5.41,-16.76 7.56,-24.87 2.17,-8.2 4.11,-16.65 5.77,-25.3 1.58,-8.16 2.92,-16.82 4.03,-25.87 1.15,-9.45 1.95,-18.06 2.34,-25.7 0.46,-8.91 0.61,-17.61 0.46,-25.99 -0.13,-7.47 -0.65,-16.4 -1.51,-26.62 -0.74,-8.78 -1.79,-17.55 -3.11,-26.16 -1.44,-9.4 -3,-17.81 -4.66,-25.17 -1.72,-7.6 -3.94,-15.89 -6.61,-24.8 -2.77,-9.05 -5.57,-17.37 -8.38,-24.82 -3.25,-8.6 -6.61,-16.68 -10.02,-24.15 -3.57,-7.78 -7.42,-15.47 -11.52,-22.98 -4.15,-7.63 -8.52,-15.05 -13.08,-22.18 -4.41,-6.9 -9.36,-14.06 -14.83,-21.45zm-16425.91 10398.91c0,-32.2 1.66,-64.85 4.9,-97.8 3.25,-33.19 8.03,-65.42 14.22,-96.6 6.25,-31.46 14.26,-63.16 23.9,-94.93 9.69,-31.92 20.72,-62.71 32.95,-92.2 12.3,-29.66 26.31,-59.12 41.92,-88.23 15.56,-29.04 32.47,-57.19 50.62,-84.3 18.17,-27.18 37.72,-53.49 58.48,-78.79 20.9,-25.45 42.86,-49.7 65.75,-72.6l0 -0.14c22.51,-22.51 46.83,-44.52 72.82,-65.86 25.33,-20.8 51.66,-40.36 78.85,-58.55 27.13,-18.16 55.3,-35.09 84.37,-50.67 29.08,-15.59 58.52,-29.6 88.15,-41.88 29.48,-12.23 60.25,-23.26 92.17,-32.95 31.75,-9.64 63.45,-17.65 94.91,-23.9 31.17,-6.19 63.39,-10.97 96.58,-14.22 32.95,-3.24 65.61,-4.9 97.79,-4.9l916.63 0c32.18,0 64.84,1.66 97.81,4.9 33.19,3.25 65.42,8.03 96.6,14.22 31.45,6.25 63.15,14.26 94.91,23.9 31.92,9.69 62.69,20.72 92.19,32.95 29.65,12.29 59.11,26.3 88.21,41.89 29.04,15.57 57.22,32.5 84.34,50.65 27.34,18.29 53.75,37.9 79.09,58.68 25.96,21.3 50.21,43.2 72.58,65.57 22.36,22.36 44.27,46.61 65.58,72.58 20.77,25.34 40.38,51.76 58.67,79.1 18.13,27.11 35.06,55.26 50.63,84.31 15.6,29.1 29.62,58.57 41.92,88.23 12.24,29.52 23.27,60.31 32.96,92.26 9.64,31.74 17.65,63.43 23.9,94.88 6.19,31.19 10.96,63.44 14.21,96.63l0 0.14c3.23,32.95 4.89,65.55 4.89,97.63l0 998.5 -2913.5 0 0 -998.5zm3666.49 0l0 -2749.87c0,-32.09 1.66,-64.69 4.89,-97.65l0 -0.14c3.25,-33.19 8.02,-65.43 14.21,-96.62 6.23,-31.41 14.23,-63.09 23.86,-94.82 9.71,-31.97 20.75,-62.78 32.99,-92.32 12.31,-29.67 26.33,-59.16 41.94,-88.3 15.55,-29.02 32.46,-57.15 50.59,-84.25 18.29,-27.34 37.9,-53.74 58.67,-79.09 21.31,-25.97 43.22,-50.23 65.58,-72.59l0.14 0c22.79,-22.78 46.99,-44.68 72.44,-65.55 25.32,-20.77 51.74,-40.38 79.09,-58.68 27.1,-18.14 55.25,-35.06 84.29,-50.62 29.12,-15.6 58.58,-29.62 88.25,-41.92 29.51,-12.23 60.29,-23.26 92.23,-32.95 31.76,-9.64 63.46,-17.64 94.91,-23.89 31.18,-6.19 63.41,-10.97 96.61,-14.22 32.97,-3.24 65.62,-4.9 97.82,-4.9l916.62 0c32.2,0 64.85,1.66 97.8,4.9 33.19,3.25 65.41,8.03 96.59,14.22 31.45,6.25 63.14,14.26 94.9,23.9 31.94,9.69 62.71,20.72 92.22,32.95 29.64,12.29 59.09,26.3 88.2,41.9 29.04,15.57 57.2,32.49 84.31,50.64 27.19,18.19 53.51,37.74 78.83,58.54 25.99,21.34 50.31,43.34 72.82,65.85l0 0.14c22.92,22.96 44.9,47.25 65.79,72.71 20.78,25.33 40.34,51.66 58.52,78.84 18.14,27.12 35.05,55.26 50.61,84.3 15.57,29.07 29.55,58.48 41.82,88.07 12.24,29.53 23.29,60.33 32.98,92.29 9.63,31.73 17.63,63.41 23.86,94.83 6.19,31.18 10.97,63.4 14.22,96.6 3.24,32.97 4.9,65.62 4.9,97.83l0 3748.37 -2913.5 0 0 -998.5zm3666.62 -2749.87l0 -2750c0,-32.2 1.66,-64.84 4.9,-97.79 3.25,-33.19 8.03,-65.41 14.22,-96.59 6.24,-31.42 14.24,-63.11 23.87,-94.85 9.7,-31.96 20.73,-62.74 32.96,-92.25 12.29,-29.65 26.3,-59.1 41.89,-88.19 15.57,-29.05 32.51,-57.22 50.65,-84.34 18.3,-27.35 37.9,-53.76 58.68,-79.1 21.29,-25.96 43.18,-50.19 65.54,-72.55l0.14 0c22.78,-22.77 46.98,-44.68 72.42,-65.54 25.34,-20.77 51.75,-40.38 79.09,-58.67 27.12,-18.15 55.29,-35.08 84.34,-50.65 29.09,-15.59 58.54,-29.6 88.18,-41.89 29.51,-12.23 60.28,-23.26 92.22,-32.95 31.75,-9.64 63.44,-17.64 94.89,-23.89 31.17,-6.19 63.39,-10.97 96.58,-14.22 32.95,-3.24 65.6,-4.9 97.8,-4.9l916.62 0c32.2,0 64.84,1.66 97.81,4.9 33.19,3.25 65.41,8.03 96.59,14.22 31.46,6.25 63.16,14.26 94.93,23.9 31.92,9.69 62.69,20.72 92.19,32.95 29.65,12.29 59.1,26.3 88.2,41.89 29.05,15.56 57.22,32.49 84.33,50.63 27.18,18.17 53.49,37.72 78.79,58.49 25.45,20.89 49.71,42.86 72.61,65.75l0.14 0c22.51,22.51 44.52,46.84 65.87,72.84 20.8,25.32 40.35,51.64 58.54,78.82 18.15,27.12 35.08,55.3 50.65,84.34 15.59,29.09 29.61,58.54 41.9,88.19 12.23,29.5 23.26,60.29 32.96,92.22 9.63,31.73 17.64,63.42 23.89,94.86 6.19,31.18 10.97,63.4 14.22,96.59l0 0.14c3.23,32.95 4.89,65.55 4.89,97.64l0 6498.37c-971.12,0 -1942.25,0.25 -2913.37,-0.01l0.02 -3748.36 -0.15 0zm6956.47 -7801.19c-13.51,0 -26,0.58 -37.46,1.68 -11.75,1.13 -23.99,2.98 -36.55,5.45 -11.9,2.35 -23.81,5.34 -35.61,8.9 -12.51,3.78 -24.05,7.88 -34.57,12.23l-6.71 2.78c-9.11,3.97 -18,8.29 -26.63,12.91 -10.69,5.73 -21.21,12.06 -31.49,18.95 -10.12,6.78 -19.98,14.13 -29.48,21.96 -8.88,7.33 -18.16,15.83 -27.73,25.4 -17.82,17.82 -33.68,37.01 -47.23,57.23 -13.63,20.34 -25.31,42.04 -34.71,64.74 -9.17,22.14 -16.32,45.69 -21.18,70.35 -4.68,23.75 -7.14,48.47 -7.14,73.92l0 11173.06 -2913.5 0 0 -11173.06c0,-13.52 -0.58,-26.01 -1.68,-37.46 -1.13,-11.74 -2.98,-23.96 -5.46,-36.54 -2.43,-12.3 -5.42,-24.31 -8.92,-35.93 -3.67,-12.18 -7.76,-23.68 -12.19,-34.41 -4.69,-11.34 -9.92,-22.37 -15.61,-33.01 -6.04,-11.12 -12.39,-21.7 -19.04,-31.63 -6.78,-10.12 -14.14,-19.99 -21.98,-29.5 -7.32,-8.88 -15.82,-18.16 -25.39,-27.73 -9.58,-9.58 -18.84,-18.06 -27.7,-25.37 -9.52,-7.85 -19.4,-15.22 -29.53,-22.01 -10.29,-6.89 -20.84,-13.24 -31.55,-18.97 -10.32,-5.53 -21.45,-10.78 -33.25,-15.67 -10.67,-4.47 -22.11,-8.54 -34.22,-12.19l-0.15 0c-11.84,-3.57 -23.82,-6.58 -35.82,-8.95 -12.56,-2.47 -24.8,-4.32 -36.54,-5.45 -11.46,-1.1 -23.95,-1.68 -37.45,-1.68l-1085.39 0 1480.06 -1997.84 1438.49 -1942.28 30.06 40.51c230.61,310.96 461.11,622.08 691.57,933.17 732.53,988.7 1464.84,1977.56 2197.11,2966.44l-1085.43 0z"/>
  <polygon class="fil1" points="339.43,6783.71 2659.76,7270.61 2659.76,8117.28 5358.51,10868.95 6284.56,10921.86 6707.89,13091.45 9327.27,11477.49 9459.56,9254.99 10888.31,7852.69 12078.93,6106.44 13031.43,3566.44 13231.66,954.32 12634.56,338.53 8612.89,973.53 5808.31,2646.78 4194.35,4069.15 1945.39,4227.9 "/>
  <path class="fil4" d="M13493.46 1013.19c-14.14,-259.33 -124.43,-492.22 -296.07,-663.85 -171.64,-171.64 -404.55,-281.93 -663.9,-296.09 -638.42,-34.87 -1637.43,-29.13 -2765.52,196.65 -783.24,156.77 -1628.42,419.59 -2457.63,848.48 -515.29,266.54 -1045.8,626.07 -1556.48,1049.53 -511.14,423.84 -1001.89,911.22 -1437.19,1433.08l-41.96 51.09 -1999.76 154.47c-157.56,12.17 -306.45,59.52 -437.61,136.68 -131.15,77.18 -244.82,184.35 -331.98,316.18l-1353.45 2047.13c-64.9,98.17 -102.54,208.76 -112.03,321.71 -9.49,112.99 9.17,228.36 56.82,336.08 47.65,107.71 120.41,199.09 210.27,267.97 90.05,69.02 197.23,115.61 313.53,133.62l1709.31 264.75 -7.94 43.61c-5.12,28.2 -10.27,56.54 -16.02,91.02 -26.82,160.49 -13.65,323.25 35.2,474.82 48.81,151.47 133.41,291.94 249.44,407.95l2328.12 2328.15c95.77,95.77 208.24,170.14 329.79,220.61 122.57,50.89 254.59,77.59 388.29,77.59 27.66,0 55.24,-1.14 82.61,-3.4 27.83,-2.31 55.25,-5.71 82.11,-10.19 34.48,-5.75 62.82,-10.9 91.02,-16.02l43.62 -7.94 264.74 1709.34c18.02,116.31 64.6,223.5 133.62,313.54 68.87,89.87 160.23,162.62 267.92,210.26 44.62,19.74 90.45,34.51 136.75,44.34 46.81,9.94 94.45,14.88 142.17,14.88l0 0.15c66.41,-0.01 132.92,-9.86 197.45,-29.35 63.48,-19.17 124.64,-47.64 181.45,-85.2l2047.13 -1353.48c131.84,-87.18 239.01,-200.85 316.17,-332 77.16,-131.16 124.48,-280.02 136.63,-437.59l154.48 -1999.73 28.73 -23.57 0 -0.14 22.38 -18.25c521.89,-435.33 1009.3,-926.09 1433.15,-1437.23 423.45,-510.68 782.96,-1041.18 1049.48,-1556.47 428.88,-829.18 691.69,-1674.33 848.45,-2457.53 225.81,-1128.17 231.54,-2127.23 196.71,-2765.65zm-9683.02 10589.77l-1284.76 1284.75c-70.16,70.16 -105.25,162.14 -105.25,254.12 0,91.98 35.08,183.96 105.25,254.12 34.58,34.58 74.19,60.59 116.28,78.02 43.84,18.16 90.76,27.25 137.83,27.25 47.08,0 94.02,-9.09 137.87,-27.25 42.22,-17.49 81.85,-43.46 116.24,-77.88l1295.74 -1295.88c70.15,-70.15 105.25,-162.14 105.25,-254.12 0,-91.98 -35.09,-183.95 -105.25,-254.12l0.02 -0.12c-70.13,-70.07 -162.11,-105.13 -254.13,-105.13 -91.96,0 -183.91,35.07 -254.05,105.2l-11.04 11.04zm-668.26 -1198.46c-70.17,-70.17 -162.14,-105.25 -254.11,-105.25 -91.97,0 -183.96,35.09 -254.11,105.23l-2491.18 2491.2c-70.16,70.16 -105.25,162.14 -105.25,254.12 0,91.98 35.08,183.96 105.25,254.12 34.57,34.57 74.19,60.58 116.26,78 43.83,18.16 90.77,27.24 137.85,27.24 47.09,0 94.02,-9.09 137.87,-27.25 42.23,-17.5 81.85,-43.47 116.24,-77.88l2491.16 -2491.3c70.18,-70.18 105.28,-162.16 105.28,-254.12 0,-91.28 -34.56,-182.56 -103.65,-252.5l-1.61 -1.61zm-2737.32 721.77c47.08,0 94.02,-9.09 137.87,-27.25 42.23,-17.5 81.85,-43.47 116.24,-77.88l1295.74 -1295.88c70.16,-70.17 105.25,-162.14 105.25,-254.12 0,-91.98 -35.1,-183.97 -105.25,-254.12 -70.17,-70.17 -162.14,-105.25 -254.11,-105.25 -91.97,0 -183.96,35.09 -254.11,105.23l-1295.74 1295.76c-70.16,70.16 -105.25,162.14 -105.25,254.12 0,91.98 35.08,183.96 105.25,254.12l0 0.14c34.4,34.42 74.03,60.39 116.26,77.88 43.84,18.16 90.77,27.25 137.85,27.25zm8874.65 -4913.03c253.99,-0.02 508.14,-49.34 746.56,-147.94 229.1,-94.74 443.81,-235.24 630.04,-421.48 184.01,-183.99 326.6,-398.1 423.07,-631.01 96.52,-233.05 147.12,-485.33 147.12,-745.59 0,-260.24 -50.6,-512.53 -147.12,-745.56 -96.48,-232.92 -239.06,-447.03 -423.07,-631.04 -379.67,-379.65 -878.2,-569.43 -1376.62,-569.43 -498.43,0 -996.95,189.82 -1376.52,569.37 -184.08,184.07 -326.67,398.18 -423.15,631.09 -96.53,233.02 -147.13,485.32 -147.13,745.57 0,260.23 50.61,512.52 147.13,745.55 96.48,232.92 239.08,447.04 423.09,631.05 186.31,186.31 401.02,326.85 630.13,421.59 238.36,98.57 492.43,147.85 746.47,147.83zm-868.41 -2814.4c117.26,-117.27 252.8,-205.9 397.71,-265.83 150.44,-62.21 310.65,-93.33 470.65,-93.33 160.01,0 320.23,31.12 470.67,93.33 144.91,59.93 280.46,148.56 397.72,265.83 115.8,115.8 205.7,250.95 266.73,398.29 60.98,147.25 92.95,306.32 92.95,470.07 0,163.75 -31.97,322.84 -92.96,470.09 -61.02,147.34 -150.92,282.5 -266.72,398.3 -239.41,239.42 -553.9,359.14 -868.37,359.14 -314.47,0 -628.98,-119.72 -868.41,-359.14 -115.8,-115.8 -205.72,-250.96 -266.75,-398.3 -60.99,-147.24 -92.96,-306.3 -92.96,-470.06 0,-163.75 31.98,-322.82 92.97,-470.06 61.04,-147.36 150.97,-282.53 266.77,-398.33zm190.23 8247.38l-1697.34 1122.21 -266.25 -1718.93 31.37 -9.22c411.65,-121.03 821.43,-278.65 1225.57,-471.06 404.37,-192.52 802.45,-419.54 1190.46,-679.27l64.08 -42.89 -105.76 1369.08c-1.42,18.49 -4.52,36.59 -9.19,54.13l-41.27 90.32c-21.54,31.67 -49.26,59.25 -82.18,81.01l-309.65 204.78 0.16 -0.16zm-3174.47 -1198.25l-2328.15 -2328.29c-33.88,-33.91 -58.71,-74.75 -73.12,-118.6 -14.43,-43.92 -18.42,-90.97 -10.68,-137.23 34.8,-208.09 79.24,-411.2 131.71,-608.91 52.35,-197.25 112.88,-389.6 179.95,-576.58l19.96 -55.62 3576.79 3576.79 -55.75 19.97c-208.56,74.71 -407.6,135.51 -594.89,184.89 -213.52,56.29 -411.15,97.5 -589.86,127.37 -46.35,7.71 -93.41,3.71 -137.31,-10.72 -43.97,-14.45 -84.81,-39.24 -118.65,-73.07zm-3096.32 -5944.73l1369.06 -105.75 -42.9 64.07c-259.74,388.01 -486.77,786.08 -679.29,1190.45 -192.42,404.13 -350.04,813.93 -471.07,1225.58l-9.22 31.38 -1718.9 -266.22 1326.86 -2006.87c25.42,-38.46 58.76,-69.83 97.31,-92.51 38.55,-22.68 82.16,-36.59 128.15,-40.13zm7174.52 4174.67c-322.09,268.66 -639.2,499.98 -947.58,699.13 -308.98,199.53 -609.26,366.93 -897.1,507.38l-24.01 11.73 -3985.87 -3985.87 11.79 -24.1c167.29,-341.68 350.86,-656.76 537.65,-942.32 225.11,-344.15 455.86,-646.84 668.84,-902.18 405.95,-486.67 861.38,-939.95 1333.9,-1332.87 472.99,-393.31 963.17,-726.28 1438.09,-971.92 767.78,-397.14 1552.2,-640.24 2280.06,-785.03 1047.21,-208.32 1977.92,-213.18 2573.26,-180.78 76.22,4.15 144.58,36.47 194.83,86.72l0 0.14c50.24,50.27 82.57,118.58 86.71,194.71 32.45,595.31 27.58,1525.94 -180.74,2573.08 -144.8,727.9 -387.93,1512.39 -785.09,2280.24 -245.62,474.88 -578.57,965.05 -971.88,1438.03 -392.91,472.52 -846.19,927.95 -1332.86,1333.91z"/>
 </g>
</svg>
