<svg xmlns="http://www.w3.org/2000/svg" width="156" height="17" viewBox="0 0 156 17"><g><g opacity=".5"><path fill="#fff" d="M5.556.006h1.878L1.888 17.001H.011zm6.46 0h1.878L8.348 17.001H6.471zm6.46 0h1.878l-5.546 16.995h-1.877zm6.46 0h1.878l-5.545 16.995H19.39zm6.46 0h1.878L27.73 17.001H25.85zm6.46 0h1.878L34.19 17.001h-1.878zm6.46 0h1.879l-5.546 16.995h-1.877zm6.461 0h1.878l-5.546 16.995h-1.877zm6.46 0h1.878L53.57 17.001h-1.878zm6.46 0h1.878L60.03 17.001h-1.878zm6.46 0h1.878L66.49 17.001h-1.878zm6.46 0h1.878L72.95 17.001h-1.878zm6.46 0h1.878L79.41 17.001h-1.877zm6.461 0h1.878L85.87 17.001h-1.877zm6.46 0h1.878L92.33 17.001h-1.877zm6.46 0h1.878l-5.545 16.995h-1.878zm6.46 0h1.878l-5.545 16.995h-1.878zm6.46 0h1.878l-5.545 16.995h-1.878zm6.46 0h1.878l-5.545 16.995h-1.878zm6.461 0h1.878l-5.546 16.995h-1.877zm6.46 0h1.878l-5.546 16.995h-1.877zm6.46 0h1.878l-5.545 16.995h-1.878zm6.46 0h1.878l-5.545 16.995h-1.878zm6.46 0h1.878l-5.545 16.995h-1.878z"/></g></g></svg>