<svg xmlns="http://www.w3.org/2000/svg" display="none">

    <symbol id="eye" viewBox="0 0 469.333 469.333">
        <path d="M234.667,170.667c-35.307,0-64,28.693-64,64s28.693,64,64,64s64-28.693,64-64S269.973,170.667,234.667,170.667z"/>
        <path d="M234.667,74.667C128,74.667,36.907,141.013,0,234.667c36.907,93.653,128,160,234.667,160
            c106.773,0,197.76-66.347,234.667-160C432.427,141.013,341.44,74.667,234.667,74.667z M234.667,341.333
            c-58.88,0-106.667-47.787-106.667-106.667S175.787,128,234.667,128s106.667,47.787,106.667,106.667
            S293.547,341.333,234.667,341.333z"/>
    </symbol>

    <symbol id="map" viewBox="0 0 426.667 426.667">
        <path d="M213.333,0C130.88,0,64,66.88,64,149.333c0,112,149.333,277.333,149.333,277.333s149.333-165.333,149.333-277.333
			C362.667,66.88,295.787,0,213.333,0z M213.333,202.667c-29.44,0-53.333-23.893-53.333-53.333S183.893,96,213.333,96
			s53.333,23.893,53.333,53.333S242.773,202.667,213.333,202.667z"/>
    </symbol>   

    <symbol id="mail" viewBox="0 0 512 512">
        <polygon points="339.392,258.624 512,367.744 512,144.896"/>
        <polygon points="0,144.896 0,367.744 172.608,258.624"/>
        <path d="M480,80H32C16.032,80,3.36,91.904,0.96,107.232L256,275.264l255.04-168.032C508.64,91.904,495.968,80,480,80z"/>
        <path d="M310.08,277.952l-45.28,29.824c-2.688,1.76-5.728,2.624-8.8,2.624c-3.072,0-6.112-0.864-8.8-2.624l-45.28-29.856
            L1.024,404.992C3.488,420.192,16.096,432,32,432h448c15.904,0,28.512-11.808,30.976-27.008L310.08,277.952z"/>
    </symbol>   

    <symbol id="burger" viewBox="0 0 28 23">
        <path d="M1.467 0h25.066C27.343 0 28 .657 28 1.466v.067C28 2.343 27.343 3 26.533 3H1.467C.657 3 0 2.343 0 1.533v-.067C0 .656.657 0 1.467 0zm0 10h25.066c.81 0 1.467.657 1.467 1.466v.067c0 .81-.657 1.467-1.467 1.467H1.467C.657 13 0 12.343 0 11.533v-.067C0 10.656.657 10 1.467 10zm0 10h25.066c.81 0 1.467.657 1.467 1.467v.066c0 .81-.657 1.467-1.467 1.467H1.467C.657 23 0 22.343 0 21.533v-.066C0 20.657.657 20 1.467 20z"/>
    </symbol> 

    <symbol id="search" viewBox="-1 0 136 136.21852">
        <path d="M 93.148438 80.832031 C 109.5 57.742188 104.03125 25.769531 80.941406 9.421875 C 57.851562 -6.925781 25.878906 -1.460938 9.53125 21.632812 C -6.816406 44.722656 -1.351562 76.691406 21.742188 93.039062 C 38.222656 104.707031 60.011719 105.605469 77.394531 95.339844 L 115.164062 132.882812 C 119.242188 137.175781 126.027344 137.347656 130.320312 133.269531 C 134.613281 129.195312 134.785156 122.410156 130.710938 118.117188 C 130.582031 117.980469 130.457031 117.855469 130.320312 117.726562 Z M 51.308594 84.332031 C 33.0625 84.335938 18.269531 69.554688 18.257812 51.308594 C 18.253906 33.0625 33.035156 18.269531 51.285156 18.261719 C 69.507812 18.253906 84.292969 33.011719 84.328125 51.234375 C 84.359375 69.484375 69.585938 84.300781 51.332031 84.332031 C 51.324219 84.332031 51.320312 84.332031 51.308594 84.332031 Z M 51.308594 84.332031 " />
    </symbol> 

</svg>