<svg xmlns="http://www.w3.org/2000/svg" display="none">

    <symbol id="arrow" viewBox="0 0 256 256">
        <polygon points="207.093,30.187 176.907,0 48.907,128 176.907,256 207.093,225.813 109.28,128"/>
    </symbol>

    <symbol id="vk" viewBox="0 0 24 24">
        <path d="m19.915 13.028c-.388-.49-.277-.708 0-1.146.005-.005 3.208-4.431 3.538-5.932l.002-.001c.164-.547 0-.949-.793-.949h-2.624c-.668 0-.976.345-1.141.731 0 0-1.336 3.198-3.226 5.271-.61.599-.892.791-1.225.791-.164 0-.419-.192-.419-.739v-5.105c0-.656-.187-.949-.74-.949h-4.126c-.419 0-.668.306-.668.591 0 .622.945.765 1.043 2.515v3.797c0 .832-.151.985-.486.985-.892 0-3.057-3.211-4.34-6.886-.259-.713-.512-1.001-1.185-1.001h-2.625c-.749 0-.9.345-.9.731 0 .682.892 4.073 4.148 8.553 2.17 3.058 5.226 4.715 8.006 4.715 1.671 0 1.875-.368 1.875-1.001 0-2.922-.151-3.198.686-3.198.388 0 1.056.192 2.616 1.667 1.783 1.749 2.076 2.532 3.074 2.532h2.624c.748 0 1.127-.368.909-1.094-.499-1.527-3.871-4.668-4.023-4.878z"/>
    </symbol>

    <symbol id="facebook" viewBox="0 0 24 24">
        <path d="m21 0h-18c-1.655 0-3 1.345-3 3v18c0 1.654 1.345 3 3 3h18c1.654 0 3-1.346 3-3v-18c0-1.655-1.346-3-3-3z"/>
        <path d="m16.5 12v-3c0-.828.672-.75 1.5-.75h1.5v-3.75h-3c-2.486 0-4.5 2.014-4.5 4.5v3h-3v3.75h3v8.25h4.5v-8.25h2.25l1.5-3.75z" fill="#fff"/>
    </symbol>

    <symbol id="instagram" viewBox="0 0 512 512">
        <path d="M352,0H160C71.648,0,0,71.648,0,160v192c0,88.352,71.648,160,160,160h192
            c88.352,0,160-71.648,160-160V160C512,71.648,440.352,0,352,0z M464,352c0,61.76-50.24,112-112,112H160c-61.76,0-112-50.24-112-112
            V160C48,98.24,98.24,48,160,48h192c61.76,0,112,50.24,112,112V352z"/>
        <path d="M256,128c-70.688,0-128,57.312-128,128s57.312,128,128,128s128-57.312,128-128
            S326.688,128,256,128z M256,336c-44.096,0-80-35.904-80-80c0-44.128,35.904-80,80-80s80,35.872,80,80
            C336,300.096,300.096,336,256,336z"/>
        <circle cx="393.6" cy="118.4" r="17.056"/>
    </symbol>

    <symbol id="youtube" viewBox="0 0 24 24">
        <path d="m.522 17.874c.49 1.738 1.989 2.056 2.089 2.117 2.467.672 16.295.674 18.799 0 1.715-.496 2.03-2.017 2.089-2.117.653-3.474.696-8.003-.03-11.945l.03.196c-.49-1.738-1.989-2.056-2.089-2.117-2.434-.661-16.298-.686-18.799 0-1.715.497-2.03 2.017-2.089 2.117-.699 3.651-.734 7.84 0 11.749zm9.086-2.223v-7.293l6.266 3.652z"/>
    </symbol>

    <symbol id="twitter" viewBox="0 0 24 24">
        <path d="m21.552 7.749c0-.217-.008-.428-.018-.636.976-.693 1.797-1.558 2.466-2.554v-.001c-.893.391-1.843.651-2.835.777 1.02-.609 1.799-1.566 2.165-2.719-.951.567-2.001.967-3.12 1.191-.903-.962-2.19-1.557-3.594-1.557-2.724 0-4.917 2.211-4.917 4.921 0 .39.033.765.114 1.122-4.09-.2-7.71-2.16-10.142-5.147-.424.737-.674 1.58-.674 2.487 0 1.704.877 3.214 2.186 4.089-.791-.015-1.566-.245-2.223-.606v.054c0 2.391 1.705 4.377 3.942 4.835-.752.206-1.678.198-2.221.078.637 1.948 2.447 3.381 4.597 3.428-1.674 1.309-3.8 2.098-6.101 2.098-.403 0-.79-.018-1.177-.067 2.18 1.405 4.762 2.208 7.548 2.208 9.054 0 14.004-7.5 14.004-14.001z"/>
    </symbol>

    <symbol id="eye" viewBox="0 0 469.333 469.333">
        <path d="M234.667,170.667c-35.307,0-64,28.693-64,64s28.693,64,64,64s64-28.693,64-64S269.973,170.667,234.667,170.667z"/>
        <path d="M234.667,74.667C128,74.667,36.907,141.013,0,234.667c36.907,93.653,128,160,234.667,160
            c106.773,0,197.76-66.347,234.667-160C432.427,141.013,341.44,74.667,234.667,74.667z M234.667,341.333
            c-58.88,0-106.667-47.787-106.667-106.667S175.787,128,234.667,128s106.667,47.787,106.667,106.667
            S293.547,341.333,234.667,341.333z"/>
    </symbol>

    <symbol id="map" viewBox="0 0 512 512">
        <path d="M256,0C148.48,0,61,87.48,61,195c0,42.55,13.44,82.98,38.9,116.9l144.08,194.051c0.36,0.47,0.91,0.65,1.31,1.07
			c7.2,7.71,17.59,5.77,22.72-1.07C309.5,450.591,385.55,347.2,414.79,308.2c0,0,0.01-0.03,0.02-0.05l0.18-0.24
			C438.55,274.81,451,235.77,451,195C451,87.48,363.52,0,256,0z M256,300.2c-57.89,0-105.2-47.31-105.2-105.2S198.11,89.8,256,89.8
			S361.2,137.11,361.2,195S313.89,300.2,256,300.2z"/>
    </symbol>   

    <symbol id="mail" viewBox="0 0 512 512">
        <polygon points="339.392,258.624 512,367.744 512,144.896"/>
        <polygon points="0,144.896 0,367.744 172.608,258.624"/>
        <path d="M480,80H32C16.032,80,3.36,91.904,0.96,107.232L256,275.264l255.04-168.032C508.64,91.904,495.968,80,480,80z"/>
        <path d="M310.08,277.952l-45.28,29.824c-2.688,1.76-5.728,2.624-8.8,2.624c-3.072,0-6.112-0.864-8.8-2.624l-45.28-29.856
            L1.024,404.992C3.488,420.192,16.096,432,32,432h448c15.904,0,28.512-11.808,30.976-27.008L310.08,277.952z"/>
    </symbol>   

    <symbol id="burger" viewBox="0 0 28 23">
        <path d="M1.467 0h25.066C27.343 0 28 .657 28 1.466v.067C28 2.343 27.343 3 26.533 3H1.467C.657 3 0 2.343 0 1.533v-.067C0 .656.657 0 1.467 0zm0 10h25.066c.81 0 1.467.657 1.467 1.466v.067c0 .81-.657 1.467-1.467 1.467H1.467C.657 13 0 12.343 0 11.533v-.067C0 10.656.657 10 1.467 10zm0 10h25.066c.81 0 1.467.657 1.467 1.467v.066c0 .81-.657 1.467-1.467 1.467H1.467C.657 23 0 22.343 0 21.533v-.066C0 20.657.657 20 1.467 20z"/>
    </symbol> 

    <symbol id="email" viewBox="0 0 511.626 511.626">
        <path d="M49.106,178.729c6.472,4.567,25.981,18.131,58.528,40.685c32.548,22.554,57.482,39.92,74.803,52.099
			c1.903,1.335,5.946,4.237,12.131,8.71c6.186,4.476,11.326,8.093,15.416,10.852c4.093,2.758,9.041,5.852,14.849,9.277
			c5.806,3.422,11.279,5.996,16.418,7.7c5.14,1.718,9.898,2.569,14.275,2.569h0.287h0.288c4.377,0,9.137-0.852,14.277-2.569
			c5.137-1.704,10.615-4.281,16.416-7.7c5.804-3.429,10.752-6.52,14.845-9.277c4.093-2.759,9.229-6.376,15.417-10.852
			c6.184-4.477,10.232-7.375,12.135-8.71c17.508-12.179,62.051-43.11,133.615-92.79c13.894-9.703,25.502-21.411,34.827-35.116
			c9.332-13.699,13.993-28.07,13.993-43.105c0-12.564-4.523-23.319-13.565-32.264c-9.041-8.947-19.749-13.418-32.117-13.418H45.679
			c-14.655,0-25.933,4.948-33.832,14.844C3.949,79.562,0,91.934,0,106.779c0,11.991,5.236,24.985,15.703,38.974
			C26.169,159.743,37.307,170.736,49.106,178.729z"/>
		<path d="M483.072,209.275c-62.424,42.251-109.824,75.087-142.177,98.501c-10.849,7.991-19.65,14.229-26.409,18.699
			c-6.759,4.473-15.748,9.041-26.98,13.702c-11.228,4.668-21.692,6.995-31.401,6.995h-0.291h-0.287
			c-9.707,0-20.177-2.327-31.405-6.995c-11.228-4.661-20.223-9.229-26.98-13.702c-6.755-4.47-15.559-10.708-26.407-18.699
			c-25.697-18.842-72.995-51.68-141.896-98.501C17.987,202.047,8.375,193.762,0,184.437v226.685c0,12.57,4.471,23.319,13.418,32.265
			c8.945,8.949,19.701,13.422,32.264,13.422h420.266c12.56,0,23.315-4.473,32.261-13.422c8.949-8.949,13.418-19.694,13.418-32.265
			V184.437C503.441,193.569,493.927,201.854,483.072,209.275z"/>
    </symbol> 

    <symbol id="search" viewBox="-1 0 136 136.21852">
        <path d="M 93.148438 80.832031 C 109.5 57.742188 104.03125 25.769531 80.941406 9.421875 C 57.851562 -6.925781 25.878906 -1.460938 9.53125 21.632812 C -6.816406 44.722656 -1.351562 76.691406 21.742188 93.039062 C 38.222656 104.707031 60.011719 105.605469 77.394531 95.339844 L 115.164062 132.882812 C 119.242188 137.175781 126.027344 137.347656 130.320312 133.269531 C 134.613281 129.195312 134.785156 122.410156 130.710938 118.117188 C 130.582031 117.980469 130.457031 117.855469 130.320312 117.726562 Z M 51.308594 84.332031 C 33.0625 84.335938 18.269531 69.554688 18.257812 51.308594 C 18.253906 33.0625 33.035156 18.269531 51.285156 18.261719 C 69.507812 18.253906 84.292969 33.011719 84.328125 51.234375 C 84.359375 69.484375 69.585938 84.300781 51.332031 84.332031 C 51.324219 84.332031 51.320312 84.332031 51.308594 84.332031 Z M 51.308594 84.332031 " />
    </symbol> 

    <symbol id="programme-icon-1" viewBox="0 0 512 512">
        <path d="m512 482h-30v-302h-91v302h-30v-182h-90v182h-30v-242h-90v242h-30v-152h-91v152h-30v30h512z"/>
        <path d="m512 120v-120h-121v30h69.789l-144.789 143.789-120-120-191.605 190.606 21.21 21.21 170.395-169.394 120 120 166-165v68.789z"/>
    </symbol> 

    <symbol id="programme-icon-2" viewBox="0 0 489.773 489.773">
        <path id="XMLID_98_" d="M155.183,305.646c-2.081,0.175-4.157,0.265-6.238,0.265c-5.693,0-11.23-0.826-16.652-2.081L6.834,429.293
            c-6.158,6.149-6.158,16.137,0,22.287l32.47,32.478c6.158,6.15,16.135,6.15,22.276,0l150.785-150.757l-27.944-30.15L155.183,305.646
            z"/>
        <path id="XMLID_97_" d="M485.345,104.649c-5.888-5.885-15.417-5.885-21.304,0l-81.303,81.301c-7.693,7.685-20.154,7.685-27.847,0
            c-7.659-7.679-7.659-20.13,0-27.807l80.901-80.884c6.112-6.118,6.112-16.036,0-22.168c-6.141-6.11-16.055-6.11-22.167,0
            l-80.868,80.876c-7.693,7.693-20.14,7.693-27.833,0c-7.677-7.676-7.677-20.136,0-27.806l81.286-81.293
            c5.904-5.894,5.904-15.441,0-21.343c-5.888-5.895-15.434-5.895-21.338,0l-91.458,91.463
            c-21.989,22.003-28.935,52.888-21.816,80.991l61.31,61.314c28.101,7.093,59.001,0.144,80.965-21.841l91.471-91.458
            C491.249,120.1,491.249,110.543,485.345,104.649z"/>
        <path id="XMLID_96_" d="M41.093,13.791c-3.134-3.135-7.372-4.854-11.724-4.854c-0.926,0-1.857,0.079-2.766,0.231
            c-5.295,0.896-9.838,4.295-12.172,9.133c-26.79,55.373-15.594,121.631,27.894,165.121l77.801,77.791
            c7.676,7.685,18.055,11.939,28.819,11.939c1.151,0,2.305-0.048,3.456-0.143l45.171-3.855l196.971,212.489
            c3.058,3.303,7.342,5.221,11.855,5.31c0.093,0,0.19,0,0.288,0c4.412,0,8.636-1.743,11.771-4.855l33.734-33.741
            c3.117-3.11,4.859-7.331,4.859-11.73c0-4.398-1.742-8.622-4.846-11.732L41.093,13.791z"/>
    </symbol> 

    <symbol id="programme-icon-3" viewBox="0 0 464 464">
        <path d="m240 360c0 4.417969-3.582031 8-8 8s-8-3.582031-8-8 3.582031-8 8-8 8 3.582031 8 8zm0 0"/>
        <path d="m168 312c0 4.417969-3.582031 8-8 8s-8-3.582031-8-8 3.582031-8 8-8 8 3.582031 8 8zm0 0"/>
        <path d="m96 360c0 4.417969-3.582031 8-8 8s-8-3.582031-8-8 3.582031-8 8-8 8 3.582031 8 8zm0 0"/>
        <path d="m80 256h96v-80h-96zm16-64h64v16h-64zm0 32h64v16h-64zm0 0"/>
        <path d="m320 296c0 4.417969-3.582031 8-8 8s-8-3.582031-8-8 3.582031-8 8-8 8 3.582031 8 8zm0 0"/>
        <path d="m288 192c7.808594 0 15.359375-1.039062 22.632812-2.808594l-29.074218-87.207031-84.910156-35.382813c-2.992188 9.269532-4.648438 19.140626-4.648438 29.398438 0 52.9375 43.0625 96 96 96zm0 0"/>
        <path d="m384 344c0 4.417969-3.582031 8-8 8s-8-3.582031-8-8 3.582031-8 8-8 8 3.582031 8 8zm0 0"/>
        <path d="m349.929688 22.761719c-16.738282-14.167969-38.335938-22.761719-61.929688-22.761719-37.015625 0-69.144531 21.089844-85.152344 51.855469l83.289063 34.703125zm0 0"/><path d="m325.832031 184.199219c34.167969-14.710938 58.167969-48.695313 58.167969-88.199219 0-23.59375-8.59375-45.191406-22.761719-61.929688l-64.078125 64.082032zm0 0"/><path d="m432 144v256h16v-264c0-13.230469-10.769531-24-24-24h-25.28125c-.78125 5.464844-1.886719 10.816406-3.4375 16h20.71875c8.824219 0 16 7.175781 16 16zm0 0"/><path d="m48 400h123.3125l2.34375 2.34375c8.808594 8.808594 20.511719 13.65625 32.976562 13.65625h50.742188c12.457031 0 24.167969-4.847656 32.976562-13.65625l2.335938-2.34375h123.3125v-256h-26.960938c-18.023437 37.777344-56.472656 64-101.039062 64s-83.015625-26.222656-101.039062-64h-138.960938zm192-160h160v16h-160zm-32 0h16v16h-16zm-144-80h128v112h-128zm24 176c5.382812 0 10.304688 1.839844 14.3125 4.847656l34.496094-23c-.480469-1.878906-.808594-3.816406-.808594-5.847656 0-13.230469 10.769531-24 24-24s24 10.769531 24 24c0 2.03125-.328125 3.96875-.808594 5.847656l34.496094 23c4.007812-3 8.929688-4.847656 14.3125-4.847656 4.640625 0 8.9375 1.382812 12.609375 3.671875l44.804687-35.847656c-.855468-2.464844-1.414062-5.070313-1.414062-7.824219 0-13.230469 10.769531-24 24-24s24 10.769531 24 24c0 2.488281-.488281 4.847656-1.191406 7.105469l27.910156 20.925781c3.800781-2.535156 8.371094-4.03125 13.28125-4.03125 13.230469 0 24 10.769531 24 24s-10.769531 24-24 24-24-10.769531-24-24c0-2.488281.488281-4.847656 1.191406-7.105469l-27.910156-20.925781c-3.800781 2.535156-8.371094 4.03125-13.28125 4.03125-4.640625 0-8.9375-1.382812-12.609375-3.671875l-44.804687 35.847656c.855468 2.464844 1.414062 5.070313 1.414062 7.824219 0 13.230469-10.769531 24-24 24s-24-10.769531-24-24c0-2.023438.328125-3.96875.808594-5.847656l-34.496094-23c-4.007812 3.007812-8.929688 4.847656-14.3125 4.847656s-10.304688-1.839844-14.3125-4.847656l-34.496094 23c.480469 1.878906.808594 3.816406.808594 5.847656 0 13.230469-10.769531 24-24 24s-24-10.769531-24-24 10.769531-24 24-24zm0 0"/><path d="m299.183594 416c-11.503906 10.34375-26.222656 16-41.816406 16h-50.742188c-15.59375 0-30.3125-5.65625-41.816406-16h-164.808594v24c0 13.230469 10.769531 24 24 24h416c13.230469 0 24-10.769531 24-24v-24zm-251.183594 32h-16v-16h16zm32 0h-16v-16h16zm32 0h-16v-16h16zm320 0h-64v-16h64zm0 0"/>
        <path d="m32 144c0-8.824219 7.175781-16 16-16h132.71875c-1.542969-5.183594-2.65625-10.535156-3.4375-16h-137.28125c-13.230469 0-24 10.769531-24 24v264h16zm0 0"/>
    </symbol> 

    <symbol id="programme-icon-4" viewBox="0 0 64 64">
        <path d="m20 57.382 2.181 1.09a5.027 5.027 0 0 0 2.235.528h14.977a5 5 0 0 0 2.5-.67l16.8-9.7a2.008 2.008 0 0 0 .724-2.735 2.036 2.036 0 0 0 -2.726-.732l-10.075 5.819a3.982 3.982 0 0 1 -3.965 4.318 4.043 4.043 0 0 1 -1.042-.138l-11.925-3.196a1 1 0 0 1 .517-1.932l11.926 3.2a2 2 0 1 0 1.035-3.863l-14.92-4a5 5 0 0 0 -2.508-.021l-5.734 1.431z"/><path d="m12 44h6v16h-6z"/><path d="m4 46h6v12h-6z"/><path d="m23 38h32a1 1 0 0 0 1-1v-32a1 1 0 0 0 -1-1h-10v17a1 1 0 0 1 -1.515.857l-4.485-2.691-4.485 2.691a1 1 0 0 1 -1.515-.857v-17h-10a1 1 0 0 0 -1 1v32a1 1 0 0 0 1 1z"/><path d="m38.485 17.143a1 1 0 0 1 1.03 0l3.485 2.091v-15.234h-8v15.234z"/>
    </symbol> 

    <symbol id="programme-icon-5" viewBox="0 0 512 512">
        <path d="M386.227,306.528c-31.214-31.214-71.659-49.832-115.179-53.329v-30.711h29.047V192.39h-88.193v30.098h29.047v30.711
			c-43.52,3.496-83.966,22.115-115.18,53.329c-31.214,31.214-49.832,71.66-53.328,115.179h367.114
			C436.061,378.187,417.441,337.74,386.227,306.528z"/>
		<polygon points="420.899,481.902 420.899,451.804 91.391,451.804 91.391,481.902 44.312,481.902 44.312,512 467.688,512 
			467.688,481.902"/>
		<rect x="240.953" width="30.098" height="63.166"/>
		<rect x="397.853" y="198.185" width="64.349" height="30.098"/>
		<rect x="49.79" y="198.185" width="63.96" height="30.098"/>
		<polygon points="395.427,52.523 395.21,52.742 349.675,98.277 370.957,119.559 416.491,74.024 416.71,73.805"/>
		<polygon points="116.587,52.537 106.358,62.765 95.119,73.631 105.945,63.178 95.304,73.819 140.84,119.354 162.122,98.072"/>
    </symbol> 
    
    <symbol id="programme-icon-6" viewBox="0 0 512.001 512.001">
        <path d="M287.536,0.108c-8.801-1.089-16.514,6.184-16.514,15.053v76.606c84.459,7.657,150.012,78.749,150.012,164.253
			c0,90.747-73.849,165.013-165.013,165.013c-85.504,0-156.596-65.555-164.253-150.012H15.162c-8.869,0-16.142,7.712-15.053,16.512
			c17.721,143.004,157.093,250.759,310.41,218.825c96.81-20.166,175.675-99.032,195.839-195.839
			C538.293,157.201,430.538,17.83,287.536,0.108z"/>
		<path d="M361.029,256.021c0-8.402,6.599-15.001,15.001-15.001h13.501c-3.001-25.802-12.901-49.505-28.502-68.706l-9.601,9.301
			c-5.701,6-15.301,6-21.002,0c-5.999-5.7-5.999-15.299,0-21.001l9.301-9.602c-19.201-15.601-42.903-25.503-68.705-28.502v13.501
			c0,8.4-6.599,15.001-15.001,15.001c-8.402,0-15.001-6.602-15.001-15.001V122.51c-25.802,2.999-49.505,12.901-68.704,28.502
			l9.301,9.601c6,5.7,6,15.299,0,21.001c-5.7,6-15.301,6-21.002,0l-9.601-9.301c-15.602,19.202-25.502,42.905-28.503,68.706h13.501
			c8.402,0,15.001,6.599,15.001,15.001c0,8.4-6.599,15.001-15.001,15.001H122.51c3.001,25.802,12.901,49.503,28.502,68.704
			l9.601-9.301c5.7-6,15.301-6,21.002,0c5.999,5.7,5.999,15.301,0,21.002l-9.301,9.601c19.201,15.6,42.903,25.501,68.704,28.502
			v-13.5c0-8.402,6.6-15.001,15.001-15.001c8.402,0,15.001,6.599,15.001,15.001v13.501c25.802-3.001,49.505-12.903,68.704-28.502
			l-9.301-9.601c-5.999-5.701-5.999-15.301,0-21.002c5.701-6,15.301-6,21.002,0l9.601,9.301
			c15.602-19.202,25.501-42.903,28.502-68.704H376.03C367.628,271.022,361.029,264.421,361.029,256.021z M296.63,296.63
			c-5.859,5.859-15.353,5.859-21.213,0l-30.002-30.002c-2.813-2.813-4.395-6.622-4.395-10.607v-60.005
			c0-8.292,6.71-15.001,15.001-15.001c8.292,0,15.001,6.71,15.001,15.001v53.793l25.607,25.607
			C302.489,281.276,302.489,290.769,296.63,296.63z"/>
		<path d="M31.763,241.019h60.005C98.9,162.335,161.414,98.984,241.019,91.767V31.763C128.92,39.206,39.207,128.919,31.763,241.019z
			"/>
    </symbol> 

</svg>