<svg xmlns="http://www.w3.org/2000/svg" display="none">

    <symbol id="close" viewBox="0 0 27 28">
        <path d="M26.431.54c.716.72.716 1.886 0 2.605L15.642 13.996l10.79 10.852a1.85 1.85 0 0 1 0 2.604c-.716.72-1.875.72-2.59 0l-10.79-10.851-9.925 9.983c-.715.72-1.874.72-2.59 0a1.85 1.85 0 0 1 0-2.604l9.927-9.984L.538 4.013a1.85 1.85 0 0 1 0-2.605 1.824 1.824 0 0 1 2.589 0l9.926 9.984L23.842.54a1.823 1.823 0 0 1 2.59 0z"/>
    </symbol>

    <symbol id="arrow" viewBox="0 0 256 256">
        <polygon points="207.093,30.187 176.907,0 48.907,128 176.907,256 207.093,225.813 109.28,128"/>
    </symbol>

    <symbol id="searcharrow" viewBox="0 0 341.333 341.333">
        <polygon points="341.333,149.333 81.707,149.333 200.853,30.187 170.667,0 0,170.667 170.667,341.333 200.853,311.147 81.707,192 
			341.333,192"/>
    </symbol>

    <symbol id="vk" viewBox="0 0 24 24">
        <path d="m19.915 13.028c-.388-.49-.277-.708 0-1.146.005-.005 3.208-4.431 3.538-5.932l.002-.001c.164-.547 0-.949-.793-.949h-2.624c-.668 0-.976.345-1.141.731 0 0-1.336 3.198-3.226 5.271-.61.599-.892.791-1.225.791-.164 0-.419-.192-.419-.739v-5.105c0-.656-.187-.949-.74-.949h-4.126c-.419 0-.668.306-.668.591 0 .622.945.765 1.043 2.515v3.797c0 .832-.151.985-.486.985-.892 0-3.057-3.211-4.34-6.886-.259-.713-.512-1.001-1.185-1.001h-2.625c-.749 0-.9.345-.9.731 0 .682.892 4.073 4.148 8.553 2.17 3.058 5.226 4.715 8.006 4.715 1.671 0 1.875-.368 1.875-1.001 0-2.922-.151-3.198.686-3.198.388 0 1.056.192 2.616 1.667 1.783 1.749 2.076 2.532 3.074 2.532h2.624c.748 0 1.127-.368.909-1.094-.499-1.527-3.871-4.668-4.023-4.878z"/>
    </symbol>

    <symbol id="facebook" viewBox="0 0 24 24">
        <path d="m21 0h-18c-1.655 0-3 1.345-3 3v18c0 1.654 1.345 3 3 3h18c1.654 0 3-1.346 3-3v-18c0-1.655-1.346-3-3-3z"/>
        <path d="m16.5 12v-3c0-.828.672-.75 1.5-.75h1.5v-3.75h-3c-2.486 0-4.5 2.014-4.5 4.5v3h-3v3.75h3v8.25h4.5v-8.25h2.25l1.5-3.75z" fill="#fff"/>
    </symbol>

    <symbol id="instagram" viewBox="0 0 512 512">
        <path d="M352,0H160C71.648,0,0,71.648,0,160v192c0,88.352,71.648,160,160,160h192
            c88.352,0,160-71.648,160-160V160C512,71.648,440.352,0,352,0z M464,352c0,61.76-50.24,112-112,112H160c-61.76,0-112-50.24-112-112
            V160C48,98.24,98.24,48,160,48h192c61.76,0,112,50.24,112,112V352z"/>
        <path d="M256,128c-70.688,0-128,57.312-128,128s57.312,128,128,128s128-57.312,128-128
            S326.688,128,256,128z M256,336c-44.096,0-80-35.904-80-80c0-44.128,35.904-80,80-80s80,35.872,80,80
            C336,300.096,300.096,336,256,336z"/>
        <circle cx="393.6" cy="118.4" r="17.056"/>
    </symbol>

    <symbol id="youtube" viewBox="0 0 24 24">
        <path d="m.522 17.874c.49 1.738 1.989 2.056 2.089 2.117 2.467.672 16.295.674 18.799 0 1.715-.496 2.03-2.017 2.089-2.117.653-3.474.696-8.003-.03-11.945l.03.196c-.49-1.738-1.989-2.056-2.089-2.117-2.434-.661-16.298-.686-18.799 0-1.715.497-2.03 2.017-2.089 2.117-.699 3.651-.734 7.84 0 11.749zm9.086-2.223v-7.293l6.266 3.652z"/>
    </symbol>

    <symbol id="twitter" viewBox="0 0 24 24">
        <path d="m21.552 7.749c0-.217-.008-.428-.018-.636.976-.693 1.797-1.558 2.466-2.554v-.001c-.893.391-1.843.651-2.835.777 1.02-.609 1.799-1.566 2.165-2.719-.951.567-2.001.967-3.12 1.191-.903-.962-2.19-1.557-3.594-1.557-2.724 0-4.917 2.211-4.917 4.921 0 .39.033.765.114 1.122-4.09-.2-7.71-2.16-10.142-5.147-.424.737-.674 1.58-.674 2.487 0 1.704.877 3.214 2.186 4.089-.791-.015-1.566-.245-2.223-.606v.054c0 2.391 1.705 4.377 3.942 4.835-.752.206-1.678.198-2.221.078.637 1.948 2.447 3.381 4.597 3.428-1.674 1.309-3.8 2.098-6.101 2.098-.403 0-.79-.018-1.177-.067 2.18 1.405 4.762 2.208 7.548 2.208 9.054 0 14.004-7.5 14.004-14.001z"/>
    </symbol>

    <symbol id="odnoklassniki" viewBox="0 0 512.479 512.479">
        <path d="M256.239,277.333c76.583,0,138.667-62.083,138.667-138.667S332.823,0,256.239,0
		S117.573,62.083,117.573,138.667C117.667,215.211,179.695,277.239,256.239,277.333z M256.239,64
		c41.237,0,74.667,33.429,74.667,74.667s-33.429,74.667-74.667,74.667s-74.667-33.429-74.667-74.667S215.002,64,256.239,64z"/>
        <path d="M392.069,343.04c15.07-9.926,24.15-26.755,24.171-44.8c0.21-14.976-8.241-28.728-21.696-35.307
            c-13.824-6.905-30.372-5.35-42.667,4.011c-56.983,41.543-134.27,41.543-191.253,0c-12.314-9.312-28.833-10.865-42.667-4.011
            c-13.449,6.578-21.904,20.315-21.717,35.285c0.032,18.042,9.109,34.866,24.171,44.8c19.324,12.851,40.368,22.906,62.507,29.867
            c3.755,1.166,7.63,2.247,11.627,3.243l-64.469,63.04c-16.912,16.409-17.321,43.42-0.912,60.333
            c16.409,16.912,43.42,17.321,60.333,0.912c0.352-0.342,0.698-0.689,1.038-1.043l65.707-68.011l65.835,68.139
            c16.395,16.925,43.407,17.355,60.332,0.96c16.925-16.395,17.355-43.407,0.96-60.332c-0.343-0.354-0.692-0.702-1.047-1.044
            l-64.363-62.976c3.996-1.024,7.886-2.112,11.669-3.264C351.743,365.908,372.767,355.874,392.069,343.04z"/>
    </symbol>

    <symbol id="eye" viewBox="0 0 469.333 469.333">
        <path d="M234.667,170.667c-35.307,0-64,28.693-64,64s28.693,64,64,64s64-28.693,64-64S269.973,170.667,234.667,170.667z"/>
        <path d="M234.667,74.667C128,74.667,36.907,141.013,0,234.667c36.907,93.653,128,160,234.667,160
            c106.773,0,197.76-66.347,234.667-160C432.427,141.013,341.44,74.667,234.667,74.667z M234.667,341.333
            c-58.88,0-106.667-47.787-106.667-106.667S175.787,128,234.667,128s106.667,47.787,106.667,106.667
            S293.547,341.333,234.667,341.333z"/>
    </symbol>

    <symbol id="map" viewBox="0 0 512 512">
        <path d="M256,0C148.48,0,61,87.48,61,195c0,42.55,13.44,82.98,38.9,116.9l144.08,194.051c0.36,0.47,0.91,0.65,1.31,1.07
			c7.2,7.71,17.59,5.77,22.72-1.07C309.5,450.591,385.55,347.2,414.79,308.2c0,0,0.01-0.03,0.02-0.05l0.18-0.24
			C438.55,274.81,451,235.77,451,195C451,87.48,363.52,0,256,0z M256,300.2c-57.89,0-105.2-47.31-105.2-105.2S198.11,89.8,256,89.8
			S361.2,137.11,361.2,195S313.89,300.2,256,300.2z"/>
    </symbol>   

    <symbol id="mail" viewBox="0 0 512 512">
        <polygon points="339.392,258.624 512,367.744 512,144.896"/>
        <polygon points="0,144.896 0,367.744 172.608,258.624"/>
        <path d="M480,80H32C16.032,80,3.36,91.904,0.96,107.232L256,275.264l255.04-168.032C508.64,91.904,495.968,80,480,80z"/>
        <path d="M310.08,277.952l-45.28,29.824c-2.688,1.76-5.728,2.624-8.8,2.624c-3.072,0-6.112-0.864-8.8-2.624l-45.28-29.856
            L1.024,404.992C3.488,420.192,16.096,432,32,432h448c15.904,0,28.512-11.808,30.976-27.008L310.08,277.952z"/>
    </symbol>   

    <symbol id="burger" viewBox="0 0 28 23">
        <path d="M1.467 0h25.066C27.343 0 28 .657 28 1.466v.067C28 2.343 27.343 3 26.533 3H1.467C.657 3 0 2.343 0 1.533v-.067C0 .656.657 0 1.467 0zm0 10h25.066c.81 0 1.467.657 1.467 1.466v.067c0 .81-.657 1.467-1.467 1.467H1.467C.657 13 0 12.343 0 11.533v-.067C0 10.656.657 10 1.467 10zm0 10h25.066c.81 0 1.467.657 1.467 1.467v.066c0 .81-.657 1.467-1.467 1.467H1.467C.657 23 0 22.343 0 21.533v-.066C0 20.657.657 20 1.467 20z"/>
    </symbol> 

    <symbol id="email" viewBox="0 0 511.626 511.626">
        <path d="M49.106,178.729c6.472,4.567,25.981,18.131,58.528,40.685c32.548,22.554,57.482,39.92,74.803,52.099
			c1.903,1.335,5.946,4.237,12.131,8.71c6.186,4.476,11.326,8.093,15.416,10.852c4.093,2.758,9.041,5.852,14.849,9.277
			c5.806,3.422,11.279,5.996,16.418,7.7c5.14,1.718,9.898,2.569,14.275,2.569h0.287h0.288c4.377,0,9.137-0.852,14.277-2.569
			c5.137-1.704,10.615-4.281,16.416-7.7c5.804-3.429,10.752-6.52,14.845-9.277c4.093-2.759,9.229-6.376,15.417-10.852
			c6.184-4.477,10.232-7.375,12.135-8.71c17.508-12.179,62.051-43.11,133.615-92.79c13.894-9.703,25.502-21.411,34.827-35.116
			c9.332-13.699,13.993-28.07,13.993-43.105c0-12.564-4.523-23.319-13.565-32.264c-9.041-8.947-19.749-13.418-32.117-13.418H45.679
			c-14.655,0-25.933,4.948-33.832,14.844C3.949,79.562,0,91.934,0,106.779c0,11.991,5.236,24.985,15.703,38.974
			C26.169,159.743,37.307,170.736,49.106,178.729z"/>
		<path d="M483.072,209.275c-62.424,42.251-109.824,75.087-142.177,98.501c-10.849,7.991-19.65,14.229-26.409,18.699
			c-6.759,4.473-15.748,9.041-26.98,13.702c-11.228,4.668-21.692,6.995-31.401,6.995h-0.291h-0.287
			c-9.707,0-20.177-2.327-31.405-6.995c-11.228-4.661-20.223-9.229-26.98-13.702c-6.755-4.47-15.559-10.708-26.407-18.699
			c-25.697-18.842-72.995-51.68-141.896-98.501C17.987,202.047,8.375,193.762,0,184.437v226.685c0,12.57,4.471,23.319,13.418,32.265
			c8.945,8.949,19.701,13.422,32.264,13.422h420.266c12.56,0,23.315-4.473,32.261-13.422c8.949-8.949,13.418-19.694,13.418-32.265
			V184.437C503.441,193.569,493.927,201.854,483.072,209.275z"/>
    </symbol> 

    <symbol id="search" viewBox="-1 0 136 136.21852">
        <path d="M 93.148438 80.832031 C 109.5 57.742188 104.03125 25.769531 80.941406 9.421875 C 57.851562 -6.925781 25.878906 -1.460938 9.53125 21.632812 C -6.816406 44.722656 -1.351562 76.691406 21.742188 93.039062 C 38.222656 104.707031 60.011719 105.605469 77.394531 95.339844 L 115.164062 132.882812 C 119.242188 137.175781 126.027344 137.347656 130.320312 133.269531 C 134.613281 129.195312 134.785156 122.410156 130.710938 118.117188 C 130.582031 117.980469 130.457031 117.855469 130.320312 117.726562 Z M 51.308594 84.332031 C 33.0625 84.335938 18.269531 69.554688 18.257812 51.308594 C 18.253906 33.0625 33.035156 18.269531 51.285156 18.261719 C 69.507812 18.253906 84.292969 33.011719 84.328125 51.234375 C 84.359375 69.484375 69.585938 84.300781 51.332031 84.332031 C 51.324219 84.332031 51.320312 84.332031 51.308594 84.332031 Z M 51.308594 84.332031 " />
    </symbol> 

</svg>