<svg xmlns="http://www.w3.org/2000/svg" width="991" height="1100" viewBox="0 0 991 1100"><g><g clip-path="url(#clip-8938)" opacity=".15"><path fill="#fff" d="M937.047-253.688c156.34 0 283.078 126.669 283.078 282.922 0 156.254-126.738 282.922-283.078 282.922-156.34 0-283.078-126.668-283.078-282.922 0-156.253 126.738-282.922 283.078-282.922zM789.687 29.22c0 81.34 65.976 147.28 147.36 147.28 81.384 0 147.36-65.94 147.36-147.28 0-81.342-65.976-147.282-147.36-147.282-81.384 0-147.36 65.94-147.36 147.282z"/></g><g clip-path="url(#clip-8938)" opacity=".15"><path fill="#f4f5f8" d="M71.212 958.25c94.06 44.985 107.035 213.57 177.406 222.386 93.897 11.762 113.434-51.403 154.606-235.507 82.134-367.276 19.463-412.678-359.022-305.36-291.457 82.641-285.608 168.975 27.01 318.482z"/></g><g opacity=".25"><path fill="#fff" d="M396.654 63.462l-14.25 14.527-.272-.278-.273.278-14.249-14.527-14.249 14.527-.273-.278-.273.278-14.249-14.527-14.248 14.527-.273-.278-.274.278-14.248-14.527-14.25 14.527-.272-.279-.274.28-14.248-14.528L266.23 77.99l-.273-.278-.273.278-14.249-14.527-14.248 14.527-.274-.278-.273.278-14.249-14.527-14.248 14.527-.274-.278-.273.278-14.248-14.527-14.249 14.527-6.107-6.226 20.356-20.752 14.522 14.805L222.39 51.01l14.522 14.805 14.522-14.805 14.522 14.805 14.522-14.805L295 65.816l14.522-14.805 14.521 14.805 14.522-14.805 14.522 14.805 14.522-14.805 14.522 14.805 14.522-14.805 20.355 20.752-6.107 6.226z"/></g><g opacity=".15"><path fill="#fff" d="M179.482 541.864c-.975 0-1.797-.325-2.467-.977-.67-.65-1.006-1.474-1.006-2.472 0-1.017.33-1.84.99-2.471.66-.631 1.488-.947 2.483-.947 1.016 0 1.848.316 2.499.947.65.63.975 1.454.975 2.471 0 .998-.33 1.822-.99 2.472-.66.652-1.489.977-2.484.977zm20.81 0c-.976 0-1.798-.325-2.468-.977-.67-.65-1.006-1.474-1.006-2.472 0-1.017.33-1.84.99-2.471.66-.631 1.488-.947 2.483-.947 1.016 0 1.849.316 2.499.947.65.63.975 1.454.975 2.471 0 .998-.33 1.822-.99 2.472-.66.652-1.489.977-2.484.977zm20.808 0c-.974 0-1.797-.325-2.467-.977-.67-.65-1.006-1.474-1.006-2.472 0-1.017.33-1.84.99-2.471.66-.631 1.488-.947 2.483-.947 1.016 0 1.848.316 2.499.947.65.63.975 1.454.975 2.471 0 .998-.33 1.822-.99 2.472-.66.652-1.489.977-2.484.977zm20.81 0c-.976 0-1.798-.325-2.468-.977-.67-.65-1.006-1.474-1.006-2.472 0-1.017.33-1.84.99-2.471.66-.631 1.488-.947 2.483-.947 1.016 0 1.848.316 2.499.947.65.63.975 1.454.975 2.471 0 .998-.33 1.822-.99 2.472-.66.652-1.489.977-2.484.977zm20.808 0c-.975 0-1.797-.325-2.468-.977-.67-.65-1.005-1.474-1.005-2.472 0-1.017.33-1.84.99-2.471.66-.631 1.488-.947 2.483-.947 1.016 0 1.848.316 2.499.947.65.63.975 1.454.975 2.471 0 .998-.33 1.822-.99 2.472-.66.652-1.489.977-2.484.977zm20.81 0c-.976 0-1.798-.325-2.469-.977-.67-.65-1.005-1.474-1.005-2.472 0-1.017.33-1.84.99-2.471.66-.631 1.488-.947 2.483-.947 1.016 0 1.848.316 2.499.947.65.63.975 1.454.975 2.471 0 .998-.33 1.822-.99 2.472-.66.652-1.489.977-2.484.977zm-104.046 22.89c-.975 0-1.797-.324-2.467-.976-.67-.65-1.006-1.474-1.006-2.472 0-1.018.33-1.84.99-2.473.66-.63 1.488-.945 2.483-.945 1.016 0 1.848.315 2.499.945.65.632.975 1.455.975 2.473 0 .998-.33 1.822-.99 2.472-.66.652-1.489.977-2.484.977zm20.81 0c-.976 0-1.798-.324-2.468-.976-.67-.65-1.006-1.474-1.006-2.472 0-1.018.33-1.84.99-2.473.66-.63 1.488-.945 2.483-.945 1.016 0 1.849.315 2.499.945.65.632.975 1.455.975 2.473 0 .998-.33 1.822-.99 2.472-.66.652-1.489.977-2.484.977zm20.808 0c-.974 0-1.797-.324-2.467-.976-.67-.65-1.006-1.474-1.006-2.472 0-1.018.33-1.84.99-2.473.66-.63 1.488-.945 2.483-.945 1.016 0 1.848.315 2.499.945.65.632.975 1.455.975 2.473 0 .998-.33 1.822-.99 2.472-.66.652-1.489.977-2.484.977zm20.81 0c-.976 0-1.798-.324-2.468-.976-.67-.65-1.006-1.474-1.006-2.472 0-1.018.33-1.84.99-2.473.66-.63 1.488-.945 2.483-.945 1.016 0 1.848.315 2.499.945.65.632.975 1.455.975 2.473 0 .998-.33 1.822-.99 2.472-.66.652-1.489.977-2.484.977zm20.808 0c-.975 0-1.797-.324-2.468-.976-.67-.65-1.005-1.474-1.005-2.472 0-1.018.33-1.84.99-2.473.66-.63 1.488-.945 2.483-.945 1.016 0 1.848.315 2.499.945.65.632.975 1.455.975 2.473 0 .998-.33 1.822-.99 2.472-.66.652-1.489.977-2.484.977zm20.81 0c-.976 0-1.798-.324-2.469-.976-.67-.65-1.005-1.474-1.005-2.472 0-1.018.33-1.84.99-2.473.66-.63 1.488-.945 2.483-.945 1.016 0 1.848.315 2.499.945.65.632.975 1.455.975 2.473 0 .998-.33 1.822-.99 2.472-.66.652-1.489.977-2.484.977zm-104.046 22.892c-.975 0-1.797-.326-2.467-.977-.67-.651-1.006-1.475-1.006-2.472 0-1.017.33-1.842.99-2.473.66-.63 1.488-.946 2.483-.946 1.016 0 1.848.316 2.499.946.65.631.975 1.456.975 2.473 0 .997-.33 1.82-.99 2.472-.66.651-1.489.977-2.484.977zm20.81 0c-.976 0-1.798-.326-2.468-.977-.67-.651-1.006-1.475-1.006-2.472 0-1.017.33-1.842.99-2.473.66-.63 1.488-.946 2.483-.946 1.016 0 1.849.316 2.499.946.65.631.975 1.456.975 2.473 0 .997-.33 1.82-.99 2.472-.66.651-1.489.977-2.484.977zm20.808 0c-.974 0-1.797-.326-2.467-.977-.67-.651-1.006-1.475-1.006-2.472 0-1.017.33-1.842.99-2.473.66-.63 1.488-.946 2.483-.946 1.016 0 1.848.316 2.499.946.65.631.975 1.456.975 2.473 0 .997-.33 1.82-.99 2.472-.66.651-1.489.977-2.484.977zm20.81 0c-.976 0-1.798-.326-2.468-.977-.67-.651-1.006-1.475-1.006-2.472 0-1.017.33-1.842.99-2.473.66-.63 1.488-.946 2.483-.946 1.016 0 1.848.316 2.499.946.65.631.975 1.456.975 2.473 0 .997-.33 1.82-.99 2.472-.66.651-1.489.977-2.484.977zm20.808 0c-.975 0-1.797-.326-2.468-.977-.67-.651-1.005-1.475-1.005-2.472 0-1.017.33-1.842.99-2.473.66-.63 1.488-.946 2.483-.946 1.016 0 1.848.316 2.499.946.65.631.975 1.456.975 2.473 0 .997-.33 1.82-.99 2.472-.66.651-1.489.977-2.484.977zm20.81 0c-.976 0-1.798-.326-2.469-.977-.67-.651-1.005-1.475-1.005-2.472 0-1.017.33-1.842.99-2.473.66-.63 1.488-.946 2.483-.946 1.016 0 1.848.316 2.499.946.65.631.975 1.456.975 2.473 0 .997-.33 1.82-.99 2.472-.66.651-1.489.977-2.484.977zm-104.046 22.89c-.975 0-1.797-.324-2.467-.976-.67-.651-1.006-1.476-1.006-2.473 0-1.017.33-1.84.99-2.472.66-.63 1.488-.946 2.483-.946 1.016 0 1.848.316 2.499.946.65.632.975 1.455.975 2.472 0 .997-.33 1.822-.99 2.473-.66.652-1.489.976-2.484.976zm20.81 0c-.976 0-1.798-.324-2.468-.976-.67-.651-1.006-1.476-1.006-2.473 0-1.017.33-1.84.99-2.472.66-.63 1.488-.946 2.483-.946 1.016 0 1.849.316 2.499.946.65.632.975 1.455.975 2.472 0 .997-.33 1.822-.99 2.473-.66.652-1.489.976-2.484.976zm20.808 0c-.974 0-1.797-.324-2.467-.976-.67-.651-1.006-1.476-1.006-2.473 0-1.017.33-1.84.99-2.472.66-.63 1.488-.946 2.483-.946 1.016 0 1.848.316 2.499.946.65.632.975 1.455.975 2.472 0 .997-.33 1.822-.99 2.473-.66.652-1.489.976-2.484.976zm20.81 0c-.976 0-1.798-.324-2.468-.976-.67-.651-1.006-1.476-1.006-2.473 0-1.017.33-1.84.99-2.472.66-.63 1.488-.946 2.483-.946 1.016 0 1.848.316 2.499.946.65.632.975 1.455.975 2.472 0 .997-.33 1.822-.99 2.473-.66.652-1.489.976-2.484.976zm20.808 0c-.975 0-1.797-.324-2.468-.976-.67-.651-1.005-1.476-1.005-2.473 0-1.017.33-1.84.99-2.472.66-.63 1.488-.946 2.483-.946 1.016 0 1.848.316 2.499.946.65.632.975 1.455.975 2.472 0 .997-.33 1.822-.99 2.473-.66.652-1.489.976-2.484.976zm20.81 0c-.976 0-1.798-.324-2.469-.976-.67-.651-1.005-1.476-1.005-2.473 0-1.017.33-1.84.99-2.472.66-.63 1.488-.946 2.483-.946 1.016 0 1.848.316 2.499.946.65.632.975 1.455.975 2.472 0 .997-.33 1.822-.99 2.473-.66.652-1.489.976-2.484.976zm-104.046 22.891c-.975 0-1.797-.325-2.467-.977-.67-.65-1.006-1.474-1.006-2.472 0-1.017.33-1.841.99-2.472.66-.63 1.488-.946 2.483-.946 1.016 0 1.848.315 2.499.946.65.63.975 1.455.975 2.472 0 .998-.33 1.821-.99 2.472-.66.652-1.489.977-2.484.977zm20.81 0c-.976 0-1.798-.325-2.468-.977-.67-.65-1.006-1.474-1.006-2.472 0-1.017.33-1.841.99-2.472.66-.63 1.488-.946 2.483-.946 1.016 0 1.849.315 2.499.946.65.63.975 1.455.975 2.472 0 .998-.33 1.821-.99 2.472-.66.652-1.489.977-2.484.977zm20.808 0c-.974 0-1.797-.325-2.467-.977-.67-.65-1.006-1.474-1.006-2.472 0-1.017.33-1.841.99-2.472.66-.63 1.488-.946 2.483-.946 1.016 0 1.848.315 2.499.946.65.63.975 1.455.975 2.472 0 .998-.33 1.821-.99 2.472-.66.652-1.489.977-2.484.977zm20.81 0c-.976 0-1.798-.325-2.468-.977-.67-.65-1.006-1.474-1.006-2.472 0-1.017.33-1.841.99-2.472.66-.63 1.488-.946 2.483-.946 1.016 0 1.848.315 2.499.946.65.63.975 1.455.975 2.472 0 .998-.33 1.821-.99 2.472-.66.652-1.489.977-2.484.977zm20.808 0c-.975 0-1.797-.325-2.468-.977-.67-.65-1.005-1.474-1.005-2.472 0-1.017.33-1.841.99-2.472.66-.63 1.488-.946 2.483-.946 1.016 0 1.848.315 2.499.946.65.63.975 1.455.975 2.472 0 .998-.33 1.821-.99 2.472-.66.652-1.489.977-2.484.977zm20.81 0c-.976 0-1.798-.325-2.469-.977-.67-.65-1.005-1.474-1.005-2.472 0-1.017.33-1.841.99-2.472.66-.63 1.488-.946 2.483-.946 1.016 0 1.848.315 2.499.946.65.63.975 1.455.975 2.472 0 .998-.33 1.821-.99 2.472-.66.652-1.489.977-2.484.977zm-104.046 22.89c-.975 0-1.797-.325-2.467-.976-.67-.65-1.006-1.476-1.006-2.473 0-1.016.33-1.84.99-2.472.66-.63 1.488-.946 2.483-.946 1.016 0 1.848.316 2.499.946.65.632.975 1.456.975 2.472 0 .997-.33 1.822-.99 2.473-.66.65-1.489.976-2.484.976zm20.81 0c-.976 0-1.798-.325-2.468-.976-.67-.65-1.006-1.476-1.006-2.473 0-1.016.33-1.84.99-2.472.66-.63 1.488-.946 2.483-.946 1.016 0 1.849.316 2.499.946.65.632.975 1.456.975 2.472 0 .997-.33 1.822-.99 2.473-.66.65-1.489.976-2.484.976zm20.808 0c-.974 0-1.797-.325-2.467-.976-.67-.65-1.006-1.476-1.006-2.473 0-1.016.33-1.84.99-2.472.66-.63 1.488-.946 2.483-.946 1.016 0 1.848.316 2.499.946.65.632.975 1.456.975 2.472 0 .997-.33 1.822-.99 2.473-.66.65-1.489.976-2.484.976zm20.81 0c-.976 0-1.798-.325-2.468-.976-.67-.65-1.006-1.476-1.006-2.473 0-1.016.33-1.84.99-2.472.66-.63 1.488-.946 2.483-.946 1.016 0 1.848.316 2.499.946.65.632.975 1.456.975 2.472 0 .997-.33 1.822-.99 2.473-.66.65-1.489.976-2.484.976zm20.808 0c-.975 0-1.797-.325-2.468-.976-.67-.65-1.005-1.476-1.005-2.473 0-1.016.33-1.84.99-2.472.66-.63 1.488-.946 2.483-.946 1.016 0 1.848.316 2.499.946.65.632.975 1.456.975 2.472 0 .997-.33 1.822-.99 2.473-.66.65-1.489.976-2.484.976zm20.81 0c-.976 0-1.798-.325-2.469-.976-.67-.65-1.005-1.476-1.005-2.473 0-1.016.33-1.84.99-2.472.66-.63 1.488-.946 2.483-.946 1.016 0 1.848.316 2.499.946.65.632.975 1.456.975 2.472 0 .997-.33 1.822-.99 2.473-.66.65-1.489.976-2.484.976zm-104.046 22.89c-.975 0-1.797-.324-2.467-.976-.67-.65-1.006-1.474-1.006-2.472 0-1.017.33-1.841.99-2.472.66-.63 1.488-.946 2.483-.946 1.016 0 1.848.316 2.499.946.65.63.975 1.455.975 2.472 0 .998-.33 1.821-.99 2.472-.66.652-1.489.977-2.484.977zm20.81 0c-.976 0-1.798-.324-2.468-.976-.67-.65-1.006-1.474-1.006-2.472 0-1.017.33-1.841.99-2.472.66-.63 1.488-.946 2.483-.946 1.016 0 1.849.316 2.499.946.65.63.975 1.455.975 2.472 0 .998-.33 1.821-.99 2.472-.66.652-1.489.977-2.484.977zm20.808 0c-.974 0-1.797-.324-2.467-.976-.67-.65-1.006-1.474-1.006-2.472 0-1.017.33-1.841.99-2.472.66-.63 1.488-.946 2.483-.946 1.016 0 1.848.316 2.499.946.65.63.975 1.455.975 2.472 0 .998-.33 1.821-.99 2.472-.66.652-1.489.977-2.484.977zm20.81 0c-.976 0-1.798-.324-2.468-.976-.67-.65-1.006-1.474-1.006-2.472 0-1.017.33-1.841.99-2.472.66-.63 1.488-.946 2.483-.946 1.016 0 1.848.316 2.499.946.65.63.975 1.455.975 2.472 0 .998-.33 1.821-.99 2.472-.66.652-1.489.977-2.484.977zm20.808 0c-.975 0-1.797-.324-2.468-.976-.67-.65-1.005-1.474-1.005-2.472 0-1.017.33-1.841.99-2.472.66-.63 1.488-.946 2.483-.946 1.016 0 1.848.316 2.499.946.65.63.975 1.455.975 2.472 0 .998-.33 1.821-.99 2.472-.66.652-1.489.977-2.484.977zm20.81 0c-.976 0-1.798-.324-2.469-.976-.67-.65-1.005-1.474-1.005-2.472 0-1.017.33-1.841.99-2.472.66-.63 1.488-.946 2.483-.946 1.016 0 1.848.316 2.499.946.65.63.975 1.455.975 2.472 0 .998-.33 1.821-.99 2.472-.66.652-1.489.977-2.484.977zM179.481 702.1c-.975 0-1.797-.326-2.467-.977-.67-.65-1.006-1.475-1.006-2.472 0-1.017.33-1.842.99-2.472.66-.63 1.488-.947 2.483-.947 1.016 0 1.848.316 2.499.947.65.63.975 1.455.975 2.472 0 .997-.33 1.822-.99 2.472-.66.651-1.489.977-2.484.977zm20.81 0c-.976 0-1.798-.326-2.468-.977-.67-.65-1.006-1.475-1.006-2.472 0-1.017.33-1.842.99-2.472.66-.63 1.488-.947 2.483-.947 1.016 0 1.849.316 2.499.947.65.63.975 1.455.975 2.472 0 .997-.33 1.822-.99 2.472-.66.651-1.489.977-2.484.977zm20.808 0c-.974 0-1.797-.326-2.467-.977-.67-.65-1.006-1.475-1.006-2.472 0-1.017.33-1.842.99-2.472.66-.63 1.488-.947 2.483-.947 1.016 0 1.848.316 2.499.947.65.63.975 1.455.975 2.472 0 .997-.33 1.822-.99 2.472-.66.651-1.489.977-2.484.977zm20.81 0c-.976 0-1.798-.326-2.468-.977-.67-.65-1.006-1.475-1.006-2.472 0-1.017.33-1.842.99-2.472.66-.63 1.488-.947 2.483-.947 1.016 0 1.848.316 2.499.947.65.63.975 1.455.975 2.472 0 .997-.33 1.822-.99 2.472-.66.651-1.489.977-2.484.977zm20.808 0c-.975 0-1.797-.326-2.468-.977-.67-.65-1.005-1.475-1.005-2.472 0-1.017.33-1.842.99-2.472.66-.63 1.488-.947 2.483-.947 1.016 0 1.848.316 2.499.947.65.63.975 1.455.975 2.472 0 .997-.33 1.822-.99 2.472-.66.651-1.489.977-2.484.977zm20.81 0c-.976 0-1.798-.326-2.469-.977-.67-.65-1.005-1.475-1.005-2.472 0-1.017.33-1.842.99-2.472.66-.63 1.488-.947 2.483-.947 1.016 0 1.848.316 2.499.947.65.63.975 1.455.975 2.472 0 .997-.33 1.822-.99 2.472-.66.651-1.489.977-2.484.977zm-104.046 22.89c-.975 0-1.797-.325-2.467-.976-.67-.652-1.006-1.476-1.006-2.472 0-1.018.33-1.842.99-2.473.66-.63 1.488-.946 2.483-.946 1.016 0 1.848.316 2.499.946.65.631.975 1.455.975 2.473 0 .996-.33 1.82-.99 2.472-.66.651-1.489.977-2.484.977zm20.81 0c-.976 0-1.798-.325-2.468-.976-.67-.652-1.006-1.476-1.006-2.472 0-1.018.33-1.842.99-2.473.66-.63 1.488-.946 2.483-.946 1.016 0 1.849.316 2.499.946.65.631.975 1.455.975 2.473 0 .996-.33 1.82-.99 2.472-.66.651-1.489.977-2.484.977zm20.808 0c-.974 0-1.797-.325-2.467-.976-.67-.652-1.006-1.476-1.006-2.472 0-1.018.33-1.842.99-2.473.66-.63 1.488-.946 2.483-.946 1.016 0 1.848.316 2.499.946.65.631.975 1.455.975 2.473 0 .996-.33 1.82-.99 2.472-.66.651-1.489.977-2.484.977zm20.81 0c-.976 0-1.798-.325-2.468-.976-.67-.652-1.006-1.476-1.006-2.472 0-1.018.33-1.842.99-2.473.66-.63 1.488-.946 2.483-.946 1.016 0 1.848.316 2.499.946.65.631.975 1.455.975 2.473 0 .996-.33 1.82-.99 2.472-.66.651-1.489.977-2.484.977zm20.808 0c-.975 0-1.797-.325-2.468-.976-.67-.652-1.005-1.476-1.005-2.472 0-1.018.33-1.842.99-2.473.66-.63 1.488-.946 2.483-.946 1.016 0 1.848.316 2.499.946.65.631.975 1.455.975 2.473 0 .996-.33 1.82-.99 2.472-.66.651-1.489.977-2.484.977zm20.81 0c-.976 0-1.798-.325-2.469-.976-.67-.652-1.005-1.476-1.005-2.472 0-1.018.33-1.842.99-2.473.66-.63 1.488-.946 2.483-.946 1.016 0 1.848.316 2.499.946.65.631.975 1.455.975 2.473 0 .996-.33 1.82-.99 2.472-.66.651-1.489.977-2.484.977z"/></g></g></svg>