<svg xmlns="http://www.w3.org/2000/svg" width="21" height="28" viewBox="0 0 21 28"><g><g><path fill="#5f94ff" d="M9.839 11.447c.459 0 .415 2.018.109 2.565-.274-.875-.268-2.565-.11-2.565zm1.903 7.377c-1.307.257-2.44.815-3.44 1.198.607-1.061 1.132-2.324 1.553-3.43.525.952 1.192 1.707 1.887 2.232zm-5.125 2.395c-1.186 1.903-1.908 2.242-1.908 2.199.317-.859 1.542-1.854 1.908-2.199zM21.001 8.757v17.936a1.31 1.31 0 0 1-1.313 1.313H1.312A1.31 1.31 0 0 1 0 26.693V1.32A1.31 1.31 0 0 1 1.312.007H12.25v7.437c0 .722.59 1.313 1.313 1.313zm-10.21 6.452c.245-1.011.634-2.548.338-3.51-.257-1.608-2.319-1.45-2.614-.372-.273 1-.022 2.411.443 4.21-.634 1.51-1.57 3.533-2.231 4.693-.006 0-.006.005-.011.005-1.482.76-4.025 2.433-2.98 3.718.306.378.874.547 1.175.547.979 0 1.952-.984 3.342-3.38 1.41-.464 2.958-1.044 4.32-1.268 1.187.646 2.576 1.067 3.5 1.067 1.597 0 1.706-1.75 1.077-2.374-.76-.743-2.97-.53-4.025-.394-1.093-.667-1.82-1.585-2.335-2.942zM21 6.673v.334h-7v-7h.328c.35 0 .683.137.93.383l5.359 5.36c.246.245.383.579.383.923zm-6.776 12.545c2.204-.159 2.564.344 2.34.492 0 0-.311.372-2.34-.492z"/></g></g></svg>