<svg xmlns="http://www.w3.org/2000/svg" width="28" height="23" viewBox="0 0 28 23"><g><g><path fill="#1f2126" d="M1.467 0h25.066C27.343 0 28 .657 28 1.466v.067C28 2.343 27.343 3 26.533 3H1.467C.657 3 0 2.343 0 1.533v-.067C0 .656.657 0 1.467 0zm0 10h25.066c.81 0 1.467.657 1.467 1.466v.067c0 .81-.657 1.467-1.467 1.467H1.467C.657 13 0 12.343 0 11.533v-.067C0 10.656.657 10 1.467 10zm0 10h25.066c.81 0 1.467.657 1.467 1.467v.066c0 .81-.657 1.467-1.467 1.467H1.467C.657 23 0 22.343 0 21.533v-.066C0 20.657.657 20 1.467 20z"/></g></g></svg>