<svg xmlns="http://www.w3.org/2000/svg" width="21" height="28" viewBox="0 0 21 28"><g><g><path fill="#5f94ff" d="M9.838 11.447c.46 0 .416 2.018.11 2.565-.273-.875-.268-2.565-.11-2.565zm1.904 7.377c-1.307.257-2.44.815-3.44 1.198.607-1.061 1.132-2.324 1.553-3.429.525.952 1.192 1.706 1.887 2.231zM6.617 21.22c-1.186 1.904-1.908 2.243-1.908 2.199.317-.859 1.542-1.854 1.908-2.199zM21 8.757v17.936a1.31 1.31 0 0 1-1.312 1.313H1.313A1.31 1.31 0 0 1 0 26.693V1.32A1.31 1.31 0 0 1 1.313.007H12.25v7.437c0 .722.591 1.313 1.313 1.313zm-10.21 6.452c.246-1.011.635-2.548.34-3.51-.258-1.608-2.32-1.45-2.615-.372-.273 1-.022 2.412.443 4.21-.634 1.51-1.57 3.533-2.231 4.692-.006 0-.006.006-.011.006-1.482.76-4.025 2.433-2.98 3.719.305.377.874.547 1.175.547.979 0 1.952-.985 3.342-3.38 1.41-.465 2.958-1.045 4.32-1.269 1.187.645 2.576 1.067 3.5 1.067 1.597 0 1.706-1.75 1.077-2.374-.76-.744-2.97-.53-4.025-.393-1.093-.667-1.82-1.586-2.335-2.943zM21 6.673v.334h-7v-7h.328c.35 0 .684.137.93.383l5.36 5.36c.246.245.382.579.382.923zm-6.775 12.545c2.204-.159 2.565.344 2.34.492 0 0-.312.372-2.34-.492z"/></g></g></svg>