<svg xmlns="http://www.w3.org/2000/svg" width="80" height="80" viewBox="0 0 80 80"><g><g><path fill="#a8acb9" d="M40 0C62.09 0 80 17.909 80 40S62.091 80 40 80 0 62.09 0 40 17.909 0 40 0z"/></g><g><path fill="#fff" d="M56 52.825v1.8C56 56.488 54.464 58 52.571 58H27.43c-1.893 0-3.43-1.512-3.43-3.375v-1.8c0-5.217 4.3-9.45 9.601-9.45 2.057 0 3.036 1.125 6.4 1.125 3.364 0 4.35-1.125 6.4-1.125 5.3 0 9.6 4.233 9.6 9.45zm-3.429 0c0-3.347-2.771-6.075-6.171-6.075-1.05 0-2.707 1.125-6.4 1.125-3.664 0-5.357-1.125-6.4-1.125-3.4 0-6.171 2.728-6.171 6.075v1.8H52.57zm-22.857-20.7C29.714 26.535 34.321 22 40 22c5.678 0 10.286 4.535 10.286 10.125S45.678 42.25 40 42.25c-5.679 0-10.286-4.536-10.286-10.125zm3.429 0c0 3.72 3.078 6.75 6.857 6.75 3.779 0 6.857-3.03 6.857-6.75s-3.078-6.75-6.857-6.75c-3.779 0-6.857 3.03-6.857 6.75z"/></g></g></svg>