<svg height="512" viewBox="0 0 64 64" width="512" xmlns="http://www.w3.org/2000/svg"><g id="Box"><path d="m20 57.382 2.181 1.09a5.027 5.027 0 0 0 2.235.528h14.977a5 5 0 0 0 2.5-.67l16.8-9.7a2.008 2.008 0 0 0 .724-2.735 2.036 2.036 0 0 0 -2.726-.732l-10.075 5.819a3.982 3.982 0 0 1 -3.965 4.318 4.043 4.043 0 0 1 -1.042-.138l-11.925-3.196a1 1 0 0 1 .517-1.932l11.926 3.2a2 2 0 1 0 1.035-3.863l-14.92-4a5 5 0 0 0 -2.508-.021l-5.734 1.431z"/><path d="m12 44h6v16h-6z"/><path d="m4 46h6v12h-6z"/><path d="m23 38h32a1 1 0 0 0 1-1v-32a1 1 0 0 0 -1-1h-10v17a1 1 0 0 1 -1.515.857l-4.485-2.691-4.485 2.691a1 1 0 0 1 -1.515-.857v-17h-10a1 1 0 0 0 -1 1v32a1 1 0 0 0 1 1z"/><path d="m38.485 17.143a1 1 0 0 1 1.03 0l3.485 2.091v-15.234h-8v15.234z"/></g></svg>