<?xml version="1.0" encoding="UTF-8"?>
<!DOCTYPE svg PUBLIC "-//W3C//DTD SVG 1.1//EN" "http://www.w3.org/Graphics/SVG/1.1/DTD/svg11.dtd">
<!-- Creator: CorelDRAW 2018 (64-Bit) -->
<svg xmlns="http://www.w3.org/2000/svg" xml:space="preserve" width="210mm" height="210mm" version="1.1" style="shape-rendering:geometricPrecision; text-rendering:geometricPrecision; image-rendering:optimizeQuality; fill-rule:evenodd; clip-rule:evenodd"
viewBox="0 0 21000 21000"
 xmlns:xlink="http://www.w3.org/1999/xlink">
 <defs>
  <style type="text/css">
   <![CDATA[
    .fil2 {fill:black}
    .fil0 {fill:#5F94FF}
    .fil3 {fill:#FE4B64}
    .fil1 {fill:#FEFEFE}
   ]]>
  </style>
 </defs>
 <g id="Слой_x0020_1">
  <metadata id="CorelCorpID_0Corel-Layer"/>
  <path class="fil0" d="M6677.3 527.4c5168.2,0 3131.09,3004.08 6755.28,6273.93 3624.18,3269.84 7567.42,55.26 7567.42,6675.17 0,8286.81 -14940.9,8661.59 -19063.9,2224 -4404.19,-6876.65 -426.98,-15173.1 4741.2,-15173.1z"/>
  <path class="fil0" d="M17831.11 1580.93c1927.85,1342.98 2779.72,3452.26 1902.71,4711.21 -877.01,1258.95 -3150.8,1190.85 -5078.65,-152.13 -1927.85,-1342.98 -2779.72,-3452.26 -1902.71,-4711.21 877.01,-1258.95 3150.8,-1190.85 5078.65,152.13z"/>
  <polygon class="fil1" points="337.19,5338.04 363.65,20181.17 972.19,20710.34 10867.61,20710.34 11633.7,20151.34 11608.44,16212.42 14889.28,17429.5 19889.97,2956.75 12746.22,363.84 10920.59,5285.09 9677.05,5205.71 9729.96,3644.67 9068.51,2956.75 "/>
  <path class="fil2" d="M20264.75 2762.43c-39.99,-83.73 -111.6,-148.17 -199.09,-179.27l-7260.03 -2562.94c-182.18,-64.42 -382.13,31.28 -446.55,213.45l-1649.15 4666.5 -721.37 0.02 0 -1189.96c0,-325.73 -151.25,-633 -409.3,-831.76 -258.22,-198.75 -593.87,-266.43 -908.83,-183.2l-8409.65 2216.52 0 6.33c-152.44,38.28 -259.59,174.82 -260.79,332.05l0 14699.84c0,579.86 470.14,1049.99 1049.99,1049.99l9799.9 0.02c579.85,0 1049.99,-470.14 1049.99,-1050l0 -3175.77 2806.98 990.87c182.35,64.25 382.3,-31.28 446.55,-213.62l5126.38 -14521.59c30.76,-87.67 25.29,-183.89 -15.04,-267.45l0.01 -0.03zm-11415.72 607.89c104.93,-27.68 217.04,-5.13 303,61.01 86.13,66.31 136.55,168.85 136.55,277.53l0 1191.33 -6239.78 0 5800.23 -1529.87zm2350.86 16579.7c0,193.29 -156.72,350 -350,350l-9799.91 0.01c-193.29,0 -349.99,-156.72 -349.99,-350l0 -14349.84 10149.89 -0.02c193.29,0 349.99,156.72 349.99,350l0.02 13999.85zm2877.04 -13017.36l447.91 -212.42 213.46 446.55 -1700.59 4812.78c-30.76,87.51 -25.63,183.72 14.36,267.45l364.36 762.2 -112.62 319.57 -694.19 -718.79c-76.22,-79.64 -185.59,-118.43 -294.97,-105.1l-414.76 52.47 0 -468.93 298.55 -142.87c83.73,-39.99 148.17,-111.6 179.28,-199.09l699.98 -1979.5 999.23 -2834.32zm660 2336.15l710.59 1141.77 -121.5 344.02 -850.21 -744.43 261.12 -741.36zm-2837.06 1727.94l0 -961.81 344.36 -14.36 -344.36 976.17zm595.06 -1686.91l-595.06 24.44 0 -465.86 856.88 -298.9 -261.82 740.32zm2114.68 7678.55l-2709.74 -956.51 0 -2768.86 327.96 -41.02 967.1 1000.43c66.32,67.67 157.23,105.44 251.9,104.93 24.96,0.17 49.91,-2.57 74.18,-8.04 118.6,-25.81 215.15,-111.08 255.49,-225.41l350 -990.17c30.93,-87.5 25.8,-183.71 -14.37,-267.27l-366.06 -761.35 478.86 -1356.24 1028.28 901.31c63.74,55.88 145.78,86.81 230.7,86.81 29.91,0 59.64,-3.93 88.52,-11.62 112.29,-29.39 202.69,-112.44 241.48,-221.82l350 -990.17c35.38,-100.32 23.24,-211.06 -32.99,-301.3l-1095.45 -1759.89 410.16 -1161.58c30.93,-87.67 25.8,-183.89 -14.36,-267.8l-426.9 -892.77c-83.4,-174.49 -292.4,-248.31 -466.89,-164.91l-893.28 427.07c-83.57,39.99 -148,111.6 -178.75,199.09l-410.66 1162.95 -1154.93 402.97 0 -2177.05c-0.85,-364.18 -190.89,-701.88 -501.92,-891.39l571.99 -1621.98 128.34 -363.83 805.09 -2274.98 6600.55 2329.84 -4894.3 13860.56zm0 0z"/>
  <path class="fil2" d="M17370.96 5343.66l232.93 -660.18 600.2 211.74 -232.94 660.18 -600.19 -211.74zm0 0z"/>
  <path class="fil2" d="M12570.47 3648.88l233.1 -660.01 600.02 211.92 -233.1 660 -600.02 -211.91zm0 0z"/>
  <path class="fil2" d="M16170.75 4920l233.1 -660.18 600.02 211.92 -233.1 660.01 -600.02 -211.75zm0 0z"/>
  <path class="fil2" d="M13770.67 4072.7l233.1 -660.01 599.85 211.92 -233.1 660 -599.85 -211.91zm0 0z"/>
  <path class="fil2" d="M14970.71 4496.01l233.1 -660.01 600.02 211.92 -233.1 660.01 -600.02 -211.92zm0 0z"/>
  <path class="fil2" d="M5788.61 7000.16c-1933.02,0 -3499.97,1566.95 -3499.97,3499.97 0,1933.02 1566.95,3499.97 3499.97,3499.97 1933.01,0 3499.96,-1566.95 3499.96,-3499.97 -2.04,-1931.99 -1567.8,-3497.75 -3499.96,-3499.97zm2527.39 2303.35l-477.48 -104.93c-210.03,-46.3 -420.06,-83.05 -632.15,-114.83 -32.14,-212.08 -69.9,-423.14 -115.02,-632.16l-105.1 -477.32c582.59,277.37 1052.22,746.65 1329.75,1329.24zm-5327.36 1196.62c0.68,-143.04 12.3,-285.92 35.03,-427.24l865.43 -192.6c132.78,-29.39 266.43,-53.83 400.4,-76.9 -33.84,463.82 -33.84,929.68 0,1393.66 -133.98,-23.06 -267.62,-47.68 -400.4,-77.07l-865.43 -192.43c-22.73,-141.33 -34.35,-284.21 -35.03,-427.42zm2011.11 -788.52c524.65,-46.83 1052.37,-46.83 1577.03,0 47,524.65 47,1052.37 0,1577.03 -524.66,47 -1052.38,47 -1577.03,0 -47,-524.66 -47,-1052.38 0,-1577.03zm2286.43 91.77c134.16,23.06 267.8,47.51 400.41,76.9l865.6 192.59c48.53,282.83 48.53,571.82 0,854.66l-865.6 192.44c-132.62,29.39 -266.26,54.01 -400.41,77.42 34.01,-464.15 34.01,-930.02 0,-1394l0 -0.01zm-1070.51 -2068.19l192.44 865.93c29.39,132.62 54.17,266.26 77.42,400.4 -464.15,-34 -930.02,-34 -1394.17,0 23.24,-134.16 47.68,-267.79 77.42,-400.4l192.43 -865.93c282.83,-48.02 571.65,-48.02 854.49,0l-0.03 0zm-1624.02 236.52l-105.1 477.48c-46.15,210.03 -82.88,420.06 -114.68,632.15 -212.07,31.78 -423.13,69.89 -632.15,114.68l-477.48 105.1c277.88,-582.08 747.16,-1051.01 1329.4,-1328.21l0.01 -1.2zm-1330.09 3724.01l477.48 105.1c210.03,46.15 419.89,82.88 632.15,114.68 31.79,212.07 69.9,423.13 114.68,632.15l105.1 477.32c-582.58,-277.03 -1052.04,-745.96 -1330.09,-1328.21l0.68 -1.04zm2099.98 1567.3l-192.44 -865.94c-29.74,-132.27 -54.17,-266.26 -77.42,-400.07 231.73,16.92 464.5,28.38 697.26,28.38 232.76,0 464.84,-11.45 696.91,-28.38 -23.24,133.81 -48.02,267.8 -77.42,400.07l-192.43 865.94c-282.83,48.01 -571.65,48.01 -854.49,0l0.03 0zm1624.03 -236.53l105.1 -477.48c46.48,-210.03 82.88,-419.89 115.01,-632.15 211.75,-31.78 423.14,-69.89 632.16,-114.68l477.32 -105.1c-277.37,583.11 -746.99,1052.9 -1329.92,1330.43l0.33 -1.02zm0 0z"/>
  <path class="fil3" d="M2988.64 16800.06l5599.94 0 0 699.99 -5599.94 0 0 -699.99zm0 0z"/>
  <path class="fil3" d="M3688.63 18200.05l4199.95 0 0 699.99 -4199.95 0 0 -699.99zm0 0z"/>
  <path class="fil2" d="M5438.61 15400.07l699.99 0 0 699.99 -699.99 0.01 0 -700zm0 0z"/>
  <path class="fil2" d="M4038.62 15400.07l700 0 0 699.99 -700 0.01 0 -700zm0 0z"/>
  <path class="fil2" d="M6838.6 15400.07l699.99 0 0 699.99 -699.99 0.01 0 -700zm0 0z"/>
 </g>
</svg>
