<?xml version="1.0" encoding="UTF-8"?>
<!DOCTYPE svg PUBLIC "-//W3C//DTD SVG 1.1//EN" "http://www.w3.org/Graphics/SVG/1.1/DTD/svg11.dtd">
<!-- Creator: CorelDRAW 2018 (64-Bit) -->
<svg xmlns="http://www.w3.org/2000/svg" xml:space="preserve" width="210mm" height="210mm" version="1.1" style="shape-rendering:geometricPrecision; text-rendering:geometricPrecision; image-rendering:optimizeQuality; fill-rule:evenodd; clip-rule:evenodd"
viewBox="0 0 21000 21000"
 xmlns:xlink="http://www.w3.org/1999/xlink">
 <defs>
  <style type="text/css">
   <![CDATA[
    .fil0 {fill:#5F94FF}
    .fil2 {fill:#FE4B64}
    .fil1 {fill:#FEFEFE}
    .fil3 {fill:black;fill-rule:nonzero}
   ]]>
  </style>
 </defs>
 <g id="Слой_x0020_1">
  <metadata id="CorelCorpID_0Corel-Layer"/>
  <path class="fil0" d="M6677.3 527.4c5168.2,0 3131.09,3004.08 6755.28,6273.93 3624.18,3269.84 7567.42,55.26 7567.42,6675.17 0,8286.81 -14940.9,8661.59 -19063.9,2224 -4404.19,-6876.65 -426.98,-15173.1 4741.2,-15173.1z"/>
  <path class="fil0" d="M17831.11 1580.93c1927.85,1342.98 2779.72,3452.26 1902.71,4711.21 -877.01,1258.95 -3150.8,1190.85 -5078.65,-152.13 -1927.85,-1342.98 -2779.72,-3452.26 -1902.71,-4711.21 877.01,-1258.95 3150.8,-1190.85 5078.65,152.13z"/>
  <polygon class="fil1" points="314.88,20641.98 314.88,15667.82 605.92,14027.4 1531.96,12969.06 2987.17,12175.31 2960.71,11169.9 2193.42,10746.56 1214.46,9820.52 420.71,8100.73 339.45,6783.64 938.31,4988.41 2193.42,3735.1 3860.29,3047.19 6691.34,3073.64 7696.75,3920.31 7802.59,4899.27 7352.79,5719.48 6479.67,6169.27 7299.88,7862.6 7511.54,8762.19 6506.13,9159.06 6506.13,10500 5976.96,10984.69 5103.83,11275.73 5130.29,14000.94 5685.92,15032.81 8490.5,14239.06 8490.5,13207.19 9178.42,13207.19 9178.42,11910.73 9866.34,11857.81 9813.42,9661.77 10633.63,9026.77 10500,7994.9 10500,527.39 11612.59,295.52 19364.88,321.98 20026.34,877.6 19973.42,8524.06 19708.84,9079.69 20396.76,9238.44 20687.8,9767.61 20714.26,14000.94 19814.67,14794.69 20026.34,15509.07 19973.42,19371.98 19497.17,20006.98 15078.63,20033.44 14549.46,19477.82 14655.3,14609.48 13253,14556.56 13253,20379.8 12591.55,20721.36 8437.59,20694.9 8437.59,18181.36 6453.21,18869.27 6373.84,20668.44 "/>
  <polygon class="fil2" points="8497.13,20741.2 12776.77,20721.36 13253,20089.9 13253.05,12730.93 12591.59,13233.64 8490.5,13207.19 8450.86,15853.02 8980.02,14887.29 9720.86,14635.93 10500,15244.47 11427.42,15337.08 11903.67,16170.52 11520.03,16964.27 8437.59,18181.36 "/>
  <path class="fil3" d="M20322.57 13887.09c0,186.98 -152.07,338.72 -338.7,338.72l-4064.52 0c-186.63,0 -338.71,-151.74 -338.71,-338.72l0 -4064.5c0,-186.64 152.08,-338.72 338.71,-338.72l1016.13 0 0 1354.84 2032.25 0 0 -1354.84 1016.14 0c186.63,0 338.7,152.08 338.7,338.72l0 4064.5zm-14967.02 -5507.44c420.17,0 762.09,-341.92 762.09,-762.09l-508.06 0c0,139.97 -114.06,254.03 -254.03,254.03 -139.98,0 -254.04,-114.06 -254.04,-254.03l-508.06 0c0,420.17 341.92,762.09 762.1,762.09zm11579.93 6523.58l677.43 0 0 677.41 -677.43 0 0 -677.41zm2709.68 4403.22c0,186.98 -152.08,338.71 -338.71,338.71l-4064.52 0c-186.62,0 -338.7,-151.73 -338.7,-338.71l0 -4064.52c0,-186.96 152.08,-338.7 338.7,-338.7l1016.14 0 0 1354.84 2032.25 0 0 -1354.84 1016.13 0c186.63,0 338.71,151.74 338.71,338.7l0 4064.52zm-6096.77 -6774.2c0,-560.22 -455.91,-1016.12 -1016.14,-1016.12l-2370.96 0 0 -1693.54c0,-186.64 152.07,-338.72 338.71,-338.72l1016.13 0 0 1354.84 2032.26 0 0 -1354.84 1016.13 0c186.62,0 338.71,152.08 338.71,338.72l0 4064.5c0,186.98 -152.09,338.72 -338.71,338.72l-1016.13 0 0 -1693.56zm-1016.14 7790.34l-3725.8 0 0 -1991.28 2436.34 -872.86c559.89,-156.81 950.76,-671.99 950.76,-1253.23 0,-717.72 -583.94,-1301.99 -1301.66,-1301.99l-251.63 0 -159.57 -159.54c-349.54,-349.88 -857.95,-470.12 -1326.72,-313.64 -127.02,42.33 -241.16,110.08 -347.52,187.65l0 -1069.31 3725.8 0c119.23,0 232.37,-24.39 338.71,-62.33l0 6497.81c0,186.97 -152.07,338.72 -338.71,338.72zm-6435.48 0l-5419.36 0 0 -2493.6c189.36,277.07 411.56,534.16 672.02,757.36l149.7 128.37c699.76,599.86 1592.61,930.44 2514.56,930.44l454.57 0c445.4,0 883.69,-76.21 1303.01,-226.26l325.5 -116.52 0 1020.21zm-3351.54 -7653.49l259.46 -97.55c1360.26,861.68 2368.26,2207.36 2819.42,3750.87l-1879.5 536.85 -133.45 -400.01c-313.3,-939.59 -1074.38,-1644.44 -2035.64,-1884.59l-164.27 657.11c735.32,183.91 1317.57,723.14 1557.37,1442.22l169.7 509.08 -1184.82 1184.81c-73.13,-52.51 -144.61,-108.04 -213.36,-166.99l-149.71 -128.37c-707.23,-606.62 -1113.02,-1488.29 -1113.02,-2419.74 0,-1320.97 830.86,-2520 2067.82,-2983.69zm-2067.82 -5433.92c0,-2121.68 1726.4,-3848.09 3848.09,-3848.09l1740.63 0c653.71,0 1185.48,531.78 1185.48,1185.49 0,653.71 -531.77,1185.49 -1185.48,1185.49l-2201.61 0c-747.2,0 -1354.84,607.65 -1354.84,1354.84l0 396.62c-394.26,139.89 -677.43,516.54 -677.43,958.22l0 57.92c0,271.3 105.69,526.68 297.74,718.73l379.69 379.69 0 996.83c-1254.23,-671.99 -2032.27,-1956.05 -2032.27,-3385.74l0 0zm6416.52 1333.5l-997.16 332.61 0 1120.11c0,218.47 -85.02,423.73 -239.8,578.52 -154.11,154.45 -359.37,239.47 -577.84,239.47l-1214.61 -0.68 0 677.42 677.41 0.34 0 1614.62c-403.74,-424.06 -857.27,-800.03 -1354.84,-1117.4l0 -2670.05 -578.17 -578.17c-64.02,-64.02 -99.24,-149.37 -99.24,-239.8l0 -57.92c0,-186.64 152.07,-338.71 338.71,-338.71l338.7 0 0 -1016.13c0,-373.6 303.82,-677.43 677.43,-677.43l1769.07 0c255.73,0 487.07,141.93 604.27,370.21 364.11,710.28 591.05,1323.35 656.07,1762.99l0 0zm1035.1 6106.25l0 989.04 -1654.59 472.5c-89.43,-306.2 -195.44,-605.95 -323.47,-896.23l1978.06 -565.31zm-4225.75 2900.71l4829.33 -1379.9 243.87 -730.94c61.31,-184.25 207.64,-330.57 391.88,-391.88 223.56,-74.17 466.41,-17.27 633.73,149.72l357.68 358 532.12 0c344.13,0 624.24,280.12 624.24,624.58 0,278.76 -187.65,526.02 -478.94,608.33l-5494.55 1967.9c-345.48,123.3 -706.88,186.3 -1074.38,186.3l-454.57 0c-431.5,0 -854.22,-90.78 -1245.74,-257.09l1135.33 -1135.02zm5580.59 -5382.09l3048.38 0c186.64,0 338.71,151.74 338.71,338.7 0,186.98 -152.07,338.72 -338.71,338.72l-3048.38 0 0 -677.42zm2709.68 -2709.68l677.41 0 0 677.42 -677.41 0 0 -677.42zm5419.36 0l677.41 0 0 677.42 -677.41 0 0 -677.42zm-6774.2 -8467.74c0,-186.63 152.08,-338.7 338.7,-338.7l2370.98 0 0 2032.25 3387.09 0 0 -2032.25 2370.97 0c186.63,0 338.71,152.07 338.71,338.7l0 7451.62c0,186.62 -152.08,338.7 -338.71,338.7l-8129.04 0c-186.62,0 -338.7,-152.08 -338.7,-338.7l0 -7451.62zm3387.09 -338.7l2032.27 0 0 1354.84 -2032.27 0 0 -1354.84zm6022.26 8168.32c47.08,-117.2 74.51,-244.21 74.51,-378l0 -7451.62c0,-560.23 -455.9,-1016.13 -1016.12,-1016.13l-8129.04 0c-560.22,0 -1016.12,455.9 -1016.12,1016.13l0 7451.62c0,133.79 27.44,260.8 74.52,378 -431.86,116.84 -751.94,508.39 -751.94,976.84l0 1693.54 -677.42 0 0 1354.84 -677.42 0 0 1099.11 -2286.29 653.37c-129.73,-232.02 -269.62,-457.93 -423.38,-674.37l0 -2446.16c345.81,-32.18 668.27,-175.45 917.22,-424.4 282.14,-282.49 437.61,-658.11 437.61,-1057.45l0 -631.7 1016.13 -338.71 0 -244.21c0,-700.45 -407.8,-1642.74 -749.57,-2309.65 -33.53,-65.38 -72.81,-126.01 -115.15,-183.93 702.14,-267.24 1203.43,-945.33 1203.43,-1740.29 0,-1027.31 -835.6,-1862.9 -1862.9,-1862.9l-1740.63 0c-2495.27,0 -4525.5,2030.23 -4525.5,4525.5 0,1725.38 958.56,3276.34 2501.37,4047.92l208.31 103.98 0 571.74 -202.57 75.87c-1476.76,554.14 -2474.26,1972.98 -2504.4,3545.95l-2.71 0 0 5419.36 6774.19 0 0 -1940.47 1354.84 -485.37 0 2425.84 4403.22 0c560.23,0 1016.14,-455.9 1016.14,-1016.13l0 -5080.64 739.73 0c-37.93,106.35 -62.32,219.48 -62.32,338.7l0 4064.52c0,560.22 455.9,1016.14 1016.13,1016.14l4064.52 0c560.22,0 1016.12,-455.92 1016.12,-1016.14l0 -4064.52c0,-133.79 -27.43,-260.8 -74.51,-378 431.86,-117.19 751.94,-508.39 751.94,-976.84l0 -4064.5c0,-468.45 -320.08,-860 -751.94,-976.84z"/>
 </g>
</svg>
